<?xml version="1.0" encoding="utf-8" standalone="no"?>
<!DOCTYPE svg PUBLIC "-//W3C//DTD SVG 1.1//EN"
  "http://www.w3.org/Graphics/SVG/1.1/DTD/svg11.dtd">
<svg xmlns:xlink="http://www.w3.org/1999/xlink" width="460.8pt" height="345.6pt" viewBox="0 0 460.8 345.6" xmlns="http://www.w3.org/2000/svg" version="1.1">
 <metadata>
  <rdf:RDF xmlns:dc="http://purl.org/dc/elements/1.1/" xmlns:cc="http://creativecommons.org/ns#" xmlns:rdf="http://www.w3.org/1999/02/22-rdf-syntax-ns#">
   <cc:Work>
    <dc:type rdf:resource="http://purl.org/dc/dcmitype/StillImage"/>
    <dc:date>2024-02-23T09:08:37.899096</dc:date>
    <dc:format>image/svg+xml</dc:format>
    <dc:creator>
     <cc:Agent>
      <dc:title>Matplotlib v3.8.3, https://matplotlib.org/</dc:title>
     </cc:Agent>
    </dc:creator>
   </cc:Work>
  </rdf:RDF>
 </metadata>
 <defs>
  <style type="text/css">*{stroke-linejoin: round; stroke-linecap: butt}</style>
 </defs>
 <g id="figure_1">
  <g id="patch_1">
   <path d="M 0 345.6 
L 460.8 345.6 
L 460.8 0 
L 0 0 
z
" style="fill: #ffffff"/>
  </g>
  <g id="axes_1">
   <g id="patch_2">
    <path d="M 41.800346 299.608 
L 450 299.608 
L 450 16.416 
L 41.800346 16.416 
z
" style="fill: #e5e5e5"/>
   </g>
   <g id="matplotlib.axis_1">
    <g id="xtick_1">
     <g id="line2d_1">
      <path d="M 101.587164 299.608 
L 101.587164 16.416 
" clip-path="url(#p451829f29d)" style="fill: none; stroke: #ffffff; stroke-width: 0.8; stroke-linecap: square"/>
     </g>
     <g id="line2d_2">
      <defs>
       <path id="m95cb39a107" d="M 0 0 
L 0 3.5 
" style="stroke: #555555; stroke-width: 0.8"/>
      </defs>
      <g>
       <use xlink:href="#m95cb39a107" x="101.587164" y="299.608" style="fill: #555555; stroke: #555555; stroke-width: 0.8"/>
      </g>
     </g>
     <g id="text_1">
      <!-- $\mathdefault{10^{-16}}$ -->
      <g style="fill: #555555" transform="translate(87.637164 314.206437) scale(0.1 -0.1)">
       <defs>
        <path id="DejaVuSans-31" d="M 794 531 
L 1825 531 
L 1825 4091 
L 703 3866 
L 703 4441 
L 1819 4666 
L 2450 4666 
L 2450 531 
L 3481 531 
L 3481 0 
L 794 0 
L 794 531 
z
" transform="scale(0.015625)"/>
        <path id="DejaVuSans-30" d="M 2034 4250 
Q 1547 4250 1301 3770 
Q 1056 3291 1056 2328 
Q 1056 1369 1301 889 
Q 1547 409 2034 409 
Q 2525 409 2770 889 
Q 3016 1369 3016 2328 
Q 3016 3291 2770 3770 
Q 2525 4250 2034 4250 
z
M 2034 4750 
Q 2819 4750 3233 4129 
Q 3647 3509 3647 2328 
Q 3647 1150 3233 529 
Q 2819 -91 2034 -91 
Q 1250 -91 836 529 
Q 422 1150 422 2328 
Q 422 3509 836 4129 
Q 1250 4750 2034 4750 
z
" transform="scale(0.015625)"/>
        <path id="DejaVuSans-2212" d="M 678 2272 
L 4684 2272 
L 4684 1741 
L 678 1741 
L 678 2272 
z
" transform="scale(0.015625)"/>
        <path id="DejaVuSans-36" d="M 2113 2584 
Q 1688 2584 1439 2293 
Q 1191 2003 1191 1497 
Q 1191 994 1439 701 
Q 1688 409 2113 409 
Q 2538 409 2786 701 
Q 3034 994 3034 1497 
Q 3034 2003 2786 2293 
Q 2538 2584 2113 2584 
z
M 3366 4563 
L 3366 3988 
Q 3128 4100 2886 4159 
Q 2644 4219 2406 4219 
Q 1781 4219 1451 3797 
Q 1122 3375 1075 2522 
Q 1259 2794 1537 2939 
Q 1816 3084 2150 3084 
Q 2853 3084 3261 2657 
Q 3669 2231 3669 1497 
Q 3669 778 3244 343 
Q 2819 -91 2113 -91 
Q 1303 -91 875 529 
Q 447 1150 447 2328 
Q 447 3434 972 4092 
Q 1497 4750 2381 4750 
Q 2619 4750 2861 4703 
Q 3103 4656 3366 4563 
z
" transform="scale(0.015625)"/>
       </defs>
       <use xlink:href="#DejaVuSans-31" transform="translate(0 0.765625)"/>
       <use xlink:href="#DejaVuSans-30" transform="translate(63.623047 0.765625)"/>
       <use xlink:href="#DejaVuSans-2212" transform="translate(128.203125 39.046875) scale(0.7)"/>
       <use xlink:href="#DejaVuSans-31" transform="translate(186.855469 39.046875) scale(0.7)"/>
       <use xlink:href="#DejaVuSans-36" transform="translate(231.391602 39.046875) scale(0.7)"/>
      </g>
     </g>
    </g>
    <g id="xtick_2">
     <g id="line2d_3">
      <path d="M 163.435597 299.608 
L 163.435597 16.416 
" clip-path="url(#p451829f29d)" style="fill: none; stroke: #ffffff; stroke-width: 0.8; stroke-linecap: square"/>
     </g>
     <g id="line2d_4">
      <g>
       <use xlink:href="#m95cb39a107" x="163.435597" y="299.608" style="fill: #555555; stroke: #555555; stroke-width: 0.8"/>
      </g>
     </g>
     <g id="text_2">
      <!-- $\mathdefault{10^{-13}}$ -->
      <g style="fill: #555555" transform="translate(149.485597 314.206437) scale(0.1 -0.1)">
       <defs>
        <path id="DejaVuSans-33" d="M 2597 2516 
Q 3050 2419 3304 2112 
Q 3559 1806 3559 1356 
Q 3559 666 3084 287 
Q 2609 -91 1734 -91 
Q 1441 -91 1130 -33 
Q 819 25 488 141 
L 488 750 
Q 750 597 1062 519 
Q 1375 441 1716 441 
Q 2309 441 2620 675 
Q 2931 909 2931 1356 
Q 2931 1769 2642 2001 
Q 2353 2234 1838 2234 
L 1294 2234 
L 1294 2753 
L 1863 2753 
Q 2328 2753 2575 2939 
Q 2822 3125 2822 3475 
Q 2822 3834 2567 4026 
Q 2313 4219 1838 4219 
Q 1578 4219 1281 4162 
Q 984 4106 628 3988 
L 628 4550 
Q 988 4650 1302 4700 
Q 1616 4750 1894 4750 
Q 2613 4750 3031 4423 
Q 3450 4097 3450 3541 
Q 3450 3153 3228 2886 
Q 3006 2619 2597 2516 
z
" transform="scale(0.015625)"/>
       </defs>
       <use xlink:href="#DejaVuSans-31" transform="translate(0 0.765625)"/>
       <use xlink:href="#DejaVuSans-30" transform="translate(63.623047 0.765625)"/>
       <use xlink:href="#DejaVuSans-2212" transform="translate(128.203125 39.046875) scale(0.7)"/>
       <use xlink:href="#DejaVuSans-31" transform="translate(186.855469 39.046875) scale(0.7)"/>
       <use xlink:href="#DejaVuSans-33" transform="translate(231.391602 39.046875) scale(0.7)"/>
      </g>
     </g>
    </g>
    <g id="xtick_3">
     <g id="line2d_5">
      <path d="M 225.284029 299.608 
L 225.284029 16.416 
" clip-path="url(#p451829f29d)" style="fill: none; stroke: #ffffff; stroke-width: 0.8; stroke-linecap: square"/>
     </g>
     <g id="line2d_6">
      <g>
       <use xlink:href="#m95cb39a107" x="225.284029" y="299.608" style="fill: #555555; stroke: #555555; stroke-width: 0.8"/>
      </g>
     </g>
     <g id="text_3">
      <!-- $\mathdefault{10^{-10}}$ -->
      <g style="fill: #555555" transform="translate(211.334029 314.206437) scale(0.1 -0.1)">
       <use xlink:href="#DejaVuSans-31" transform="translate(0 0.765625)"/>
       <use xlink:href="#DejaVuSans-30" transform="translate(63.623047 0.765625)"/>
       <use xlink:href="#DejaVuSans-2212" transform="translate(128.203125 39.046875) scale(0.7)"/>
       <use xlink:href="#DejaVuSans-31" transform="translate(186.855469 39.046875) scale(0.7)"/>
       <use xlink:href="#DejaVuSans-30" transform="translate(231.391602 39.046875) scale(0.7)"/>
      </g>
     </g>
    </g>
    <g id="xtick_4">
     <g id="line2d_7">
      <path d="M 287.132461 299.608 
L 287.132461 16.416 
" clip-path="url(#p451829f29d)" style="fill: none; stroke: #ffffff; stroke-width: 0.8; stroke-linecap: square"/>
     </g>
     <g id="line2d_8">
      <g>
       <use xlink:href="#m95cb39a107" x="287.132461" y="299.608" style="fill: #555555; stroke: #555555; stroke-width: 0.8"/>
      </g>
     </g>
     <g id="text_4">
      <!-- $\mathdefault{10^{-7}}$ -->
      <g style="fill: #555555" transform="translate(275.382461 314.206437) scale(0.1 -0.1)">
       <defs>
        <path id="DejaVuSans-37" d="M 525 4666 
L 3525 4666 
L 3525 4397 
L 1831 0 
L 1172 0 
L 2766 4134 
L 525 4134 
L 525 4666 
z
" transform="scale(0.015625)"/>
       </defs>
       <use xlink:href="#DejaVuSans-31" transform="translate(0 0.684375)"/>
       <use xlink:href="#DejaVuSans-30" transform="translate(63.623047 0.684375)"/>
       <use xlink:href="#DejaVuSans-2212" transform="translate(128.203125 38.965625) scale(0.7)"/>
       <use xlink:href="#DejaVuSans-37" transform="translate(186.855469 38.965625) scale(0.7)"/>
      </g>
     </g>
    </g>
    <g id="xtick_5">
     <g id="line2d_9">
      <path d="M 348.980894 299.608 
L 348.980894 16.416 
" clip-path="url(#p451829f29d)" style="fill: none; stroke: #ffffff; stroke-width: 0.8; stroke-linecap: square"/>
     </g>
     <g id="line2d_10">
      <g>
       <use xlink:href="#m95cb39a107" x="348.980894" y="299.608" style="fill: #555555; stroke: #555555; stroke-width: 0.8"/>
      </g>
     </g>
     <g id="text_5">
      <!-- $\mathdefault{10^{-4}}$ -->
      <g style="fill: #555555" transform="translate(337.230894 314.206437) scale(0.1 -0.1)">
       <defs>
        <path id="DejaVuSans-34" d="M 2419 4116 
L 825 1625 
L 2419 1625 
L 2419 4116 
z
M 2253 4666 
L 3047 4666 
L 3047 1625 
L 3713 1625 
L 3713 1100 
L 3047 1100 
L 3047 0 
L 2419 0 
L 2419 1100 
L 313 1100 
L 313 1709 
L 2253 4666 
z
" transform="scale(0.015625)"/>
       </defs>
       <use xlink:href="#DejaVuSans-31" transform="translate(0 0.684375)"/>
       <use xlink:href="#DejaVuSans-30" transform="translate(63.623047 0.684375)"/>
       <use xlink:href="#DejaVuSans-2212" transform="translate(128.203125 38.965625) scale(0.7)"/>
       <use xlink:href="#DejaVuSans-34" transform="translate(186.855469 38.965625) scale(0.7)"/>
      </g>
     </g>
    </g>
    <g id="xtick_6">
     <g id="line2d_11">
      <path d="M 410.829326 299.608 
L 410.829326 16.416 
" clip-path="url(#p451829f29d)" style="fill: none; stroke: #ffffff; stroke-width: 0.8; stroke-linecap: square"/>
     </g>
     <g id="line2d_12">
      <g>
       <use xlink:href="#m95cb39a107" x="410.829326" y="299.608" style="fill: #555555; stroke: #555555; stroke-width: 0.8"/>
      </g>
     </g>
     <g id="text_6">
      <!-- $\mathdefault{10^{-1}}$ -->
      <g style="fill: #555555" transform="translate(399.079326 314.206437) scale(0.1 -0.1)">
       <use xlink:href="#DejaVuSans-31" transform="translate(0 0.684375)"/>
       <use xlink:href="#DejaVuSans-30" transform="translate(63.623047 0.684375)"/>
       <use xlink:href="#DejaVuSans-2212" transform="translate(128.203125 38.965625) scale(0.7)"/>
       <use xlink:href="#DejaVuSans-31" transform="translate(186.855469 38.965625) scale(0.7)"/>
      </g>
     </g>
    </g>
    <g id="text_7">
     <!-- $x$ -->
     <g style="fill: #555555" transform="translate(242.300173 329.40425) scale(0.12 -0.12)">
      <defs>
       <path id="DejaVuSans-Oblique-78" d="M 3841 3500 
L 2234 1784 
L 3219 0 
L 2559 0 
L 1819 1388 
L 531 0 
L -166 0 
L 1556 1844 
L 641 3500 
L 1300 3500 
L 1972 2234 
L 3144 3500 
L 3841 3500 
z
" transform="scale(0.015625)"/>
      </defs>
      <use xlink:href="#DejaVuSans-Oblique-78" transform="translate(0 0.3125)"/>
     </g>
    </g>
   </g>
   <g id="matplotlib.axis_2">
    <g id="ytick_1">
     <g id="line2d_13">
      <path d="M 41.800346 299.608 
L 450 299.608 
" clip-path="url(#p451829f29d)" style="fill: none; stroke: #ffffff; stroke-width: 0.8; stroke-linecap: square"/>
     </g>
     <g id="line2d_14">
      <defs>
       <path id="m5ad19be76d" d="M 0 0 
L -3.5 0 
" style="stroke: #555555; stroke-width: 0.8"/>
      </defs>
      <g>
       <use xlink:href="#m5ad19be76d" x="41.800346" y="299.608" style="fill: #555555; stroke: #555555; stroke-width: 0.8"/>
      </g>
     </g>
     <g id="text_8">
      <!-- $\mathdefault{10^{-3}}$ -->
      <g style="fill: #555555" transform="translate(11.300346 303.407219) scale(0.1 -0.1)">
       <use xlink:href="#DejaVuSans-31" transform="translate(0 0.765625)"/>
       <use xlink:href="#DejaVuSans-30" transform="translate(63.623047 0.765625)"/>
       <use xlink:href="#DejaVuSans-2212" transform="translate(128.203125 39.046875) scale(0.7)"/>
       <use xlink:href="#DejaVuSans-33" transform="translate(186.855469 39.046875) scale(0.7)"/>
      </g>
     </g>
    </g>
    <g id="ytick_2">
     <g id="line2d_15">
      <path d="M 41.800346 228.81 
L 450 228.81 
" clip-path="url(#p451829f29d)" style="fill: none; stroke: #ffffff; stroke-width: 0.8; stroke-linecap: square"/>
     </g>
     <g id="line2d_16">
      <g>
       <use xlink:href="#m5ad19be76d" x="41.800346" y="228.81" style="fill: #555555; stroke: #555555; stroke-width: 0.8"/>
      </g>
     </g>
     <g id="text_9">
      <!-- $\mathdefault{10^{-2}}$ -->
      <g style="fill: #555555" transform="translate(11.300346 232.609219) scale(0.1 -0.1)">
       <defs>
        <path id="DejaVuSans-32" d="M 1228 531 
L 3431 531 
L 3431 0 
L 469 0 
L 469 531 
Q 828 903 1448 1529 
Q 2069 2156 2228 2338 
Q 2531 2678 2651 2914 
Q 2772 3150 2772 3378 
Q 2772 3750 2511 3984 
Q 2250 4219 1831 4219 
Q 1534 4219 1204 4116 
Q 875 4013 500 3803 
L 500 4441 
Q 881 4594 1212 4672 
Q 1544 4750 1819 4750 
Q 2544 4750 2975 4387 
Q 3406 4025 3406 3419 
Q 3406 3131 3298 2873 
Q 3191 2616 2906 2266 
Q 2828 2175 2409 1742 
Q 1991 1309 1228 531 
z
" transform="scale(0.015625)"/>
       </defs>
       <use xlink:href="#DejaVuSans-31" transform="translate(0 0.765625)"/>
       <use xlink:href="#DejaVuSans-30" transform="translate(63.623047 0.765625)"/>
       <use xlink:href="#DejaVuSans-2212" transform="translate(128.203125 39.046875) scale(0.7)"/>
       <use xlink:href="#DejaVuSans-32" transform="translate(186.855469 39.046875) scale(0.7)"/>
      </g>
     </g>
    </g>
    <g id="ytick_3">
     <g id="line2d_17">
      <path d="M 41.800346 158.012 
L 450 158.012 
" clip-path="url(#p451829f29d)" style="fill: none; stroke: #ffffff; stroke-width: 0.8; stroke-linecap: square"/>
     </g>
     <g id="line2d_18">
      <g>
       <use xlink:href="#m5ad19be76d" x="41.800346" y="158.012" style="fill: #555555; stroke: #555555; stroke-width: 0.8"/>
      </g>
     </g>
     <g id="text_10">
      <!-- $\mathdefault{10^{-1}}$ -->
      <g style="fill: #555555" transform="translate(11.300346 161.811219) scale(0.1 -0.1)">
       <use xlink:href="#DejaVuSans-31" transform="translate(0 0.684375)"/>
       <use xlink:href="#DejaVuSans-30" transform="translate(63.623047 0.684375)"/>
       <use xlink:href="#DejaVuSans-2212" transform="translate(128.203125 38.965625) scale(0.7)"/>
       <use xlink:href="#DejaVuSans-31" transform="translate(186.855469 38.965625) scale(0.7)"/>
      </g>
     </g>
    </g>
    <g id="ytick_4">
     <g id="line2d_19">
      <path d="M 41.800346 87.214 
L 450 87.214 
" clip-path="url(#p451829f29d)" style="fill: none; stroke: #ffffff; stroke-width: 0.8; stroke-linecap: square"/>
     </g>
     <g id="line2d_20">
      <g>
       <use xlink:href="#m5ad19be76d" x="41.800346" y="87.214" style="fill: #555555; stroke: #555555; stroke-width: 0.8"/>
      </g>
     </g>
     <g id="text_11">
      <!-- $\mathdefault{10^{0}}$ -->
      <g style="fill: #555555" transform="translate(17.200346 91.013219) scale(0.1 -0.1)">
       <use xlink:href="#DejaVuSans-31" transform="translate(0 0.765625)"/>
       <use xlink:href="#DejaVuSans-30" transform="translate(63.623047 0.765625)"/>
       <use xlink:href="#DejaVuSans-30" transform="translate(128.203125 39.046875) scale(0.7)"/>
      </g>
     </g>
    </g>
    <g id="ytick_5">
     <g id="line2d_21">
      <path d="M 41.800346 16.416 
L 450 16.416 
" clip-path="url(#p451829f29d)" style="fill: none; stroke: #ffffff; stroke-width: 0.8; stroke-linecap: square"/>
     </g>
     <g id="line2d_22">
      <g>
       <use xlink:href="#m5ad19be76d" x="41.800346" y="16.416" style="fill: #555555; stroke: #555555; stroke-width: 0.8"/>
      </g>
     </g>
     <g id="text_12">
      <!-- $\mathdefault{10^{1}}$ -->
      <g style="fill: #555555" transform="translate(17.200346 20.215219) scale(0.1 -0.1)">
       <use xlink:href="#DejaVuSans-31" transform="translate(0 0.684375)"/>
       <use xlink:href="#DejaVuSans-30" transform="translate(63.623047 0.684375)"/>
       <use xlink:href="#DejaVuSans-31" transform="translate(128.203125 38.965625) scale(0.7)"/>
      </g>
     </g>
    </g>
    <g id="ytick_6">
     <g id="line2d_23">
      <defs>
       <path id="mda868ab8c2" d="M 0 0 
L -2 0 
" style="stroke: #555555; stroke-width: 0.6"/>
      </defs>
      <g>
       <use xlink:href="#mda868ab8c2" x="41.800346" y="278.295678" style="fill: #555555; stroke: #555555; stroke-width: 0.6"/>
      </g>
     </g>
    </g>
    <g id="ytick_7">
     <g id="line2d_24">
      <g>
       <use xlink:href="#mda868ab8c2" x="41.800346" y="265.828769" style="fill: #555555; stroke: #555555; stroke-width: 0.6"/>
      </g>
     </g>
    </g>
    <g id="ytick_8">
     <g id="line2d_25">
      <g>
       <use xlink:href="#mda868ab8c2" x="41.800346" y="256.983357" style="fill: #555555; stroke: #555555; stroke-width: 0.6"/>
      </g>
     </g>
    </g>
    <g id="ytick_9">
     <g id="line2d_26">
      <g>
       <use xlink:href="#mda868ab8c2" x="41.800346" y="250.122322" style="fill: #555555; stroke: #555555; stroke-width: 0.6"/>
      </g>
     </g>
    </g>
    <g id="ytick_10">
     <g id="line2d_27">
      <g>
       <use xlink:href="#mda868ab8c2" x="41.800346" y="244.516448" style="fill: #555555; stroke: #555555; stroke-width: 0.6"/>
      </g>
     </g>
    </g>
    <g id="ytick_11">
     <g id="line2d_28">
      <g>
       <use xlink:href="#mda868ab8c2" x="41.800346" y="239.776749" style="fill: #555555; stroke: #555555; stroke-width: 0.6"/>
      </g>
     </g>
    </g>
    <g id="ytick_12">
     <g id="line2d_29">
      <g>
       <use xlink:href="#mda868ab8c2" x="41.800346" y="235.671035" style="fill: #555555; stroke: #555555; stroke-width: 0.6"/>
      </g>
     </g>
    </g>
    <g id="ytick_13">
     <g id="line2d_30">
      <g>
       <use xlink:href="#mda868ab8c2" x="41.800346" y="232.049539" style="fill: #555555; stroke: #555555; stroke-width: 0.6"/>
      </g>
     </g>
    </g>
    <g id="ytick_14">
     <g id="line2d_31">
      <g>
       <use xlink:href="#mda868ab8c2" x="41.800346" y="207.497678" style="fill: #555555; stroke: #555555; stroke-width: 0.6"/>
      </g>
     </g>
    </g>
    <g id="ytick_15">
     <g id="line2d_32">
      <g>
       <use xlink:href="#mda868ab8c2" x="41.800346" y="195.030769" style="fill: #555555; stroke: #555555; stroke-width: 0.6"/>
      </g>
     </g>
    </g>
    <g id="ytick_16">
     <g id="line2d_33">
      <g>
       <use xlink:href="#mda868ab8c2" x="41.800346" y="186.185357" style="fill: #555555; stroke: #555555; stroke-width: 0.6"/>
      </g>
     </g>
    </g>
    <g id="ytick_17">
     <g id="line2d_34">
      <g>
       <use xlink:href="#mda868ab8c2" x="41.800346" y="179.324322" style="fill: #555555; stroke: #555555; stroke-width: 0.6"/>
      </g>
     </g>
    </g>
    <g id="ytick_18">
     <g id="line2d_35">
      <g>
       <use xlink:href="#mda868ab8c2" x="41.800346" y="173.718448" style="fill: #555555; stroke: #555555; stroke-width: 0.6"/>
      </g>
     </g>
    </g>
    <g id="ytick_19">
     <g id="line2d_36">
      <g>
       <use xlink:href="#mda868ab8c2" x="41.800346" y="168.978749" style="fill: #555555; stroke: #555555; stroke-width: 0.6"/>
      </g>
     </g>
    </g>
    <g id="ytick_20">
     <g id="line2d_37">
      <g>
       <use xlink:href="#mda868ab8c2" x="41.800346" y="164.873035" style="fill: #555555; stroke: #555555; stroke-width: 0.6"/>
      </g>
     </g>
    </g>
    <g id="ytick_21">
     <g id="line2d_38">
      <g>
       <use xlink:href="#mda868ab8c2" x="41.800346" y="161.251539" style="fill: #555555; stroke: #555555; stroke-width: 0.6"/>
      </g>
     </g>
    </g>
    <g id="ytick_22">
     <g id="line2d_39">
      <g>
       <use xlink:href="#mda868ab8c2" x="41.800346" y="136.699678" style="fill: #555555; stroke: #555555; stroke-width: 0.6"/>
      </g>
     </g>
    </g>
    <g id="ytick_23">
     <g id="line2d_40">
      <g>
       <use xlink:href="#mda868ab8c2" x="41.800346" y="124.232769" style="fill: #555555; stroke: #555555; stroke-width: 0.6"/>
      </g>
     </g>
    </g>
    <g id="ytick_24">
     <g id="line2d_41">
      <g>
       <use xlink:href="#mda868ab8c2" x="41.800346" y="115.387357" style="fill: #555555; stroke: #555555; stroke-width: 0.6"/>
      </g>
     </g>
    </g>
    <g id="ytick_25">
     <g id="line2d_42">
      <g>
       <use xlink:href="#mda868ab8c2" x="41.800346" y="108.526322" style="fill: #555555; stroke: #555555; stroke-width: 0.6"/>
      </g>
     </g>
    </g>
    <g id="ytick_26">
     <g id="line2d_43">
      <g>
       <use xlink:href="#mda868ab8c2" x="41.800346" y="102.920448" style="fill: #555555; stroke: #555555; stroke-width: 0.6"/>
      </g>
     </g>
    </g>
    <g id="ytick_27">
     <g id="line2d_44">
      <g>
       <use xlink:href="#mda868ab8c2" x="41.800346" y="98.180749" style="fill: #555555; stroke: #555555; stroke-width: 0.6"/>
      </g>
     </g>
    </g>
    <g id="ytick_28">
     <g id="line2d_45">
      <g>
       <use xlink:href="#mda868ab8c2" x="41.800346" y="94.075035" style="fill: #555555; stroke: #555555; stroke-width: 0.6"/>
      </g>
     </g>
    </g>
    <g id="ytick_29">
     <g id="line2d_46">
      <g>
       <use xlink:href="#mda868ab8c2" x="41.800346" y="90.453539" style="fill: #555555; stroke: #555555; stroke-width: 0.6"/>
      </g>
     </g>
    </g>
    <g id="ytick_30">
     <g id="line2d_47">
      <g>
       <use xlink:href="#mda868ab8c2" x="41.800346" y="65.901678" style="fill: #555555; stroke: #555555; stroke-width: 0.6"/>
      </g>
     </g>
    </g>
    <g id="ytick_31">
     <g id="line2d_48">
      <g>
       <use xlink:href="#mda868ab8c2" x="41.800346" y="53.434769" style="fill: #555555; stroke: #555555; stroke-width: 0.6"/>
      </g>
     </g>
    </g>
    <g id="ytick_32">
     <g id="line2d_49">
      <g>
       <use xlink:href="#mda868ab8c2" x="41.800346" y="44.589357" style="fill: #555555; stroke: #555555; stroke-width: 0.6"/>
      </g>
     </g>
    </g>
    <g id="ytick_33">
     <g id="line2d_50">
      <g>
       <use xlink:href="#mda868ab8c2" x="41.800346" y="37.728322" style="fill: #555555; stroke: #555555; stroke-width: 0.6"/>
      </g>
     </g>
    </g>
    <g id="ytick_34">
     <g id="line2d_51">
      <g>
       <use xlink:href="#mda868ab8c2" x="41.800346" y="32.122448" style="fill: #555555; stroke: #555555; stroke-width: 0.6"/>
      </g>
     </g>
    </g>
    <g id="ytick_35">
     <g id="line2d_52">
      <g>
       <use xlink:href="#mda868ab8c2" x="41.800346" y="27.382749" style="fill: #555555; stroke: #555555; stroke-width: 0.6"/>
      </g>
     </g>
    </g>
    <g id="ytick_36">
     <g id="line2d_53">
      <g>
       <use xlink:href="#mda868ab8c2" x="41.800346" y="23.277035" style="fill: #555555; stroke: #555555; stroke-width: 0.6"/>
      </g>
     </g>
    </g>
    <g id="ytick_37">
     <g id="line2d_54">
      <g>
       <use xlink:href="#mda868ab8c2" x="41.800346" y="19.655539" style="fill: #555555; stroke: #555555; stroke-width: 0.6"/>
      </g>
     </g>
    </g>
   </g>
   <g id="line2d_55">
    <path d="M 102.683299 346.6 
L 102.685039 -1 
M 108.660479 -1 
L 108.662225 346.6 
M 112.341942 346.6 
L 112.343686 -1 
M 114.603789 -1 
L 114.605534 346.6 
M 117.171289 346.6 
L 117.173034 -1 
M 118.318183 -1 
L 118.31993 346.6 
M 120.143185 346.6 
L 120.144932 -1 
M 120.918274 -1 
L 120.920021 346.6 
M 122.372109 346.6 
L 122.373856 -1 
M 123.14642 -1 
L 123.14817 346.6 
M 124.229566 346.6 
L 124.231314 -1 
M 124.632644 -1 
L 124.634393 346.6 
M 125.715522 346.6 
L 125.71727 -1 
M 126.118245 -1 
L 126.119995 346.6 
M 126.829936 346.6 
L 126.831685 -1 
M 127.232723 -1 
L 127.234473 346.6 
M 127.944397 346.6 
L 127.946146 -1 
M 128.346961 -1 
L 128.348711 346.6 
M 129.058912 346.6 
L 129.060661 -1 
M 129.090051 -1 
L 129.091801 346.6 
M 129.801821 346.6 
L 129.803571 -1 
M 130.203876 -1 
L 130.205628 346.6 
M 130.916581 346.6 
L 130.918332 -1 
M 130.947001 -1 
L 130.948753 346.6 
M 131.65967 346.6 
L 131.661422 -1 
M 132.061621 -1 
L 132.063371 346.6 
M 132.773773 346.6 
L 132.775523 -1 
M 132.80443 -1 
L 132.806181 346.6 
M 133.51706 346.6 
L 133.518812 -1 
M 133.918766 -1 
L 133.920517 346.6 
M 135.002794 346.6 
L 135.004546 -1 
M 135.404514 -1 
L 135.406265 346.6 
M 138.717498 346.6 
L 138.71925 -1 
M 139.118838 -1 
L 139.120591 346.6 
M 140.203503 346.6 
L 140.205256 -1 
M 140.23318 -1 
L 140.234933 346.6 
M 140.946441 346.6 
L 140.948194 -1 
M 140.976091 -1 
L 140.977844 346.6 
M 141.689494 346.6 
L 141.691247 -1 
M 141.718885 -1 
L 141.720639 346.6 
M 143.175653 346.6 
L 143.177408 -1 
M 143.575886 -1 
L 143.577641 346.6 
M 145.032874 346.6 
L 145.034629 -1 
M 145.06182 -1 
L 145.063575 346.6 
M 145.775846 346.6 
L 145.777601 -1 
M 145.804696 -1 
L 145.806451 346.6 
M 148.004657 346.6 
L 148.006412 -1 
M 148.404607 -1 
L 148.406363 346.6 
M 150.605108 346.6 
L 150.606865 -1 
M 150.633446 -1 
L 150.635203 346.6 
M 151.348361 346.6 
L 151.350119 -1 
M 151.747567 -1 
L 151.749325 346.6 
M 153.205713 346.6 
L 153.207471 -1 
M 153.604226 -1 
L 153.605986 346.6 
M 154.320373 346.6 
L 154.322132 -1 
M 154.71909 -1 
L 154.720848 346.6 
M 155.434416 346.6 
L 155.436174 -1 
M 155.462151 -1 
L 155.463909 346.6 
M 156.177379 346.6 
L 156.179137 -1 
M 156.205036 -1 
L 156.206794 346.6 
M 156.92057 346.6 
L 156.92233 -1 
M 156.947692 -1 
L 156.949451 346.6 
M 157.663413 346.6 
L 157.665172 -1 
M 158.062116 -1 
L 158.063876 346.6 
M 159.892292 346.6 
L 159.894051 -1 
M 161.033477 -1 
L 161.035238 346.6 
M 161.749727 346.6 
L 161.751487 -1 
M 161.776548 -1 
L 161.778308 346.6 
M 162.49322 346.6 
L 162.494983 -1 
M 162.5189 -1 
L 162.520662 346.6 
M 163.60724 346.6 
L 163.609001 -1 
M 163.633654 -1 
L 163.635415 346.6 
M 164.350103 346.6 
L 164.351863 -1 
M 166.976429 -1 
L 166.978192 346.6 
M 167.693544 346.6 
L 167.695306 -1 
M 167.719514 -1 
L 167.721276 346.6 
M 168.436434 346.6 
L 168.438196 -1 
M 169.20526 -1 
L 169.207023 346.6 
M 169.922552 346.6 
L 169.924315 -1 
M 169.94805 -1 
L 169.949813 346.6 
M 171.408533 346.6 
L 171.410297 -1 
M 171.433764 -1 
L 171.435528 346.6 
M 172.151626 346.6 
L 172.153391 -1 
M 172.548275 -1 
L 172.550039 346.6 
M 175.123441 346.6 
L 175.125207 -1 
M 175.148096 -1 
L 175.149861 346.6 
M 175.866358 346.6 
L 175.868123 -1 
M 175.891028 -1 
L 175.892793 346.6 
M 177.723644 346.6 
L 177.72541 -1 
M 178.119659 -1 
L 178.121426 346.6 
M 181.067019 346.6 
L 181.068786 -1 
M 181.091303 -1 
L 181.093069 346.6 
M 182.181701 346.6 
L 182.183469 -1 
M 184.062793 -1 
L 184.06456 346.6 
M 185.153353 346.6 
L 185.155121 -1 
M 186.291434 -1 
L 186.293202 346.6 
M 189.982804 346.6 
L 189.984574 -1 
M 190.005693 -1 
L 190.007463 346.6 
M 190.72566 346.6 
L 190.727429 -1 
M 190.748686 -1 
L 190.750456 346.6 
M 191.468716 346.6 
L 191.470486 -1 
M 191.491478 -1 
L 191.493248 346.6 
M 192.954646 346.6 
L 192.956416 -1 
M 192.977244 -1 
L 192.979014 346.6 
M 194.812088 346.6 
L 194.813859 -1 
M 194.834422 -1 
L 194.836193 346.6 
M 195.926594 346.6 
L 195.928366 -1 
M 195.948687 -1 
L 195.950459 346.6 
M 197.784104 346.6 
L 197.785876 -1 
M 197.805797 -1 
L 197.80757 346.6 
M 199.641426 346.6 
L 199.643199 -1 
M 199.663095 -1 
L 199.664868 346.6 
M 202.241924 346.6 
L 202.243698 -1 
M 202.634612 -1 
L 202.636386 346.6 
M 203.72804 346.6 
L 203.729816 -1 
M 204.120312 -1 
L 204.122086 346.6 
M 204.842666 346.6 
L 204.844442 -1 
M 205.605706 -1 
L 205.607483 346.6 
M 207.814099 346.6 
L 207.815874 -1 
M 208.205206 -1 
L 208.206986 346.6 
M 208.928585 346.6 
L 208.93036 -1 
M 209.32036 -1 
L 209.322137 346.6 
M 213.758015 346.6 
L 213.759792 -1 
M 214.891922 -1 
L 214.893701 346.6 
M 215.615626 346.6 
L 215.617405 -1 
M 215.634626 -1 
L 215.636405 346.6 
M 217.472776 346.6 
L 217.474554 -1 
M 217.492097 -1 
L 217.493876 346.6 
M 218.216056 346.6 
L 218.217836 -1 
M 218.234663 -1 
L 218.236444 346.6 
M 218.958821 346.6 
L 218.9606 -1 
M 218.977747 -1 
L 218.979527 346.6 
M 220.444689 346.6 
L 220.446469 -1 
M 220.463576 -1 
L 220.465355 346.6 
M 221.930641 346.6 
L 221.932421 -1 
M 223.063499 -1 
L 223.06528 346.6 
M 223.788657 346.6 
L 223.79044 -1 
M 223.805921 -1 
L 223.807705 346.6 
M 224.902572 346.6 
L 224.904353 -1 
M 225.663731 -1 
L 225.665512 346.6 
M 227.131518 346.6 
L 227.133301 -1 
M 227.149378 -1 
L 227.15116 346.6 
M 227.874738 346.6 
L 227.876522 -1 
M 227.892005 -1 
L 227.893788 346.6 
M 229.73227 346.6 
L 229.734055 -1 
M 229.749092 -1 
L 229.750877 346.6 
M 230.475104 346.6 
L 230.476888 -1 
M 231.606662 -1 
L 231.608445 346.6 
M 232.332297 346.6 
L 232.33408 -1 
M 233.092167 -1 
L 233.093952 346.6 
M 233.81842 346.6 
L 233.820205 -1 
M 234.206681 -1 
L 234.208466 346.6 
M 234.932714 346.6 
L 234.934499 -1 
M 234.949586 -1 
L 234.951371 346.6 
M 235.675644 346.6 
L 235.677429 -1 
M 235.692504 -1 
L 235.694289 346.6 
M 236.418709 346.6 
L 236.420494 -1 
M 236.435287 -1 
L 236.437072 346.6 
M 237.161856 346.6 
L 237.163643 -1 
M 237.177987 -1 
L 237.179773 346.6 
M 237.904833 346.6 
L 237.90662 -1 
M 237.920858 -1 
L 237.922644 346.6 
M 239.01914 346.6 
L 239.020926 -1 
M 239.40659 -1 
L 239.408377 346.6 
M 240.505351 346.6 
L 240.507139 -1 
M 242.006678 -1 
L 242.008466 346.6 
M 242.734057 346.6 
L 242.735845 -1 
M 243.121241 -1 
L 243.123028 346.6 
M 243.848572 346.6 
L 243.85036 -1 
M 244.606963 -1 
L 244.60875 346.6 
M 247.191867 346.6 
L 247.193656 -1 
M 247.949359 -1 
L 247.95115 346.6 
M 248.677753 346.6 
L 248.679543 -1 
M 250.178432 -1 
L 250.180222 346.6 
M 250.907085 346.6 
L 250.908877 -1 
M 251.663969 -1 
L 251.665761 346.6 
M 253.135613 346.6 
L 253.137404 -1 
M 253.521263 -1 
L 253.523054 346.6 
M 254.993486 346.6 
L 254.99528 -1 
M 255.006707 -1 
L 255.0085 346.6 
M 256.107502 346.6 
L 256.109293 -1 
M 256.86406 -1 
L 256.865853 346.6 
M 257.593455 346.6 
L 257.595247 -1 
M 257.607209 -1 
L 257.609001 346.6 
M 259.450889 346.6 
L 259.452681 -1 
M 259.464395 -1 
L 259.466188 346.6 
M 260.193897 346.6 
L 260.195691 -1 
M 260.578719 -1 
L 260.580512 346.6 
M 261.679809 346.6 
L 261.681603 -1 
M 262.064297 -1 
L 262.066091 346.6 
M 262.794255 346.6 
L 262.796049 -1 
M 262.807345 -1 
L 262.809138 346.6 
M 263.537242 346.6 
L 263.539036 -1 
M 264.293023 -1 
L 264.294818 346.6 
M 265.394685 346.6 
L 265.396479 -1 
M 265.407383 -1 
L 265.409177 346.6 
M 266.137898 346.6 
L 266.139694 -1 
M 266.150016 -1 
L 266.151812 346.6 
M 266.880666 346.6 
L 266.882461 -1 
M 267.635935 -1 
L 267.637731 346.6 
M 268.366707 346.6 
L 268.368503 -1 
M 268.378752 -1 
L 268.380548 346.6 
M 269.481235 346.6 
L 269.483032 -1 
M 269.492995 -1 
L 269.494792 346.6 
M 270.595682 346.6 
L 270.59748 -1 
M 272.464682 -1 
L 272.466479 346.6 
M 273.196002 346.6 
L 273.197799 -1 
M 273.207469 -1 
L 273.209267 346.6 
M 274.311037 346.6 
L 274.312838 -1 
M 274.692885 -1 
L 274.694685 346.6 
M 275.796434 346.6 
L 275.798232 -1 
M 275.807505 -1 
L 275.809304 346.6 
M 278.396952 346.6 
L 278.398752 -1 
M 279.150536 -1 
L 279.152335 346.6 
M 280.625741 346.6 
L 280.627541 -1 
M 282.493257 -1 
L 282.495058 346.6 
M 283.226482 346.6 
L 283.228285 -1 
M 283.235935 -1 
L 283.237738 346.6 
M 283.96909 346.6 
L 283.970891 -1 
M 284.350502 -1 
L 284.352304 346.6 
M 285.083582 346.6 
L 285.085384 -1 
M 285.464954 -1 
L 285.466756 346.6 
M 286.198126 346.6 
L 286.199929 -1 
M 286.207684 -1 
L 286.209486 346.6 
M 288.05572 346.6 
L 288.057524 -1 
M 288.436179 -1 
L 288.437983 346.6 
M 289.170038 346.6 
L 289.171842 -1 
M 289.922006 -1 
L 289.92381 346.6 
M 290.655877 346.6 
L 290.65768 -1 
M 291.036473 -1 
L 291.038276 346.6 
M 292.141928 346.6 
L 292.143732 -1 
M 293.264625 -1 
L 293.266431 346.6 
M 295.114159 346.6 
L 295.115966 -1 
M 295.493371 -1 
L 295.495178 346.6 
M 298.085664 346.6 
L 298.08747 -1 
M 298.093714 -1 
L 298.095521 346.6 
M 299.943147 346.6 
L 299.944954 -1 
M 300.693766 -1 
L 300.695574 346.6 
M 301.429337 346.6 
L 301.431145 -1 
M 302.179411 -1 
L 302.181219 346.6 
M 303.286436 346.6 
L 303.288243 -1 
M 303.293878 -1 
L 303.295686 346.6 
M 304.029687 346.6 
L 304.031496 -1 
M 304.408124 -1 
L 304.409932 346.6 
M 305.515371 346.6 
L 305.51718 -1 
M 305.522487 -1 
L 305.524295 346.6 
M 306.258403 346.6 
L 306.260212 -1 
M 307.008237 -1 
L 307.010046 346.6 
M 308.115786 346.6 
L 308.117596 -1 
M 308.122539 -1 
L 308.124349 346.6 
M 310.344759 346.6 
L 310.346569 -1 
M 310.351111 -1 
L 310.352921 346.6 
M 311.830904 346.6 
L 311.832716 -1 
M 312.579724 -1 
L 312.581535 346.6 
M 313.316678 346.6 
L 313.31849 -1 
M 314.436838 -1 
L 314.438651 346.6 
M 316.660066 346.6 
L 316.661878 -1 
M 317.779497 -1 
L 317.781312 346.6 
M 319.260638 346.6 
L 319.262453 -1 
M 319.265406 -1 
L 319.26722 346.6 
M 320.375176 346.6 
L 320.376991 -1 
M 320.379639 -1 
L 320.381454 346.6 
M 321.117963 346.6 
L 321.119777 -1 
M 321.122702 -1 
L 321.124516 346.6 
M 321.861162 346.6 
L 321.862978 -1 
M 321.865349 -1 
L 321.867165 346.6 
M 323.718361 346.6 
L 323.720177 -1 
M 323.722771 -1 
L 323.724586 346.6 
M 325.575737 346.6 
L 325.577553 -1 
M 326.693711 -1 
L 326.69553 346.6 
M 327.433242 346.6 
L 327.435058 -1 
M 328.922868 -1 
L 328.924685 346.6 
M 329.662124 346.6 
L 329.663941 -1 
M 331.151343 -1 
L 331.153162 346.6 
M 331.891372 346.6 
L 331.893191 -1 
M 332.637103 -1 
L 332.638922 346.6 
M 333.377171 346.6 
L 333.37899 -1 
M 333.379985 -1 
L 333.381804 346.6 
M 334.119984 346.6 
L 334.121802 -1 
M 334.123021 -1 
L 334.124839 346.6 
M 334.862999 346.6 
L 334.864818 -1 
M 335.237301 -1 
L 335.23912 346.6 
M 336.348961 346.6 
L 336.350781 -1 
M 336.351587 -1 
L 336.353407 346.6 
M 337.091978 346.6 
L 337.093798 -1 
M 337.327594 -1 
L 337.46557 33.986016 
L 337.680213 -1 
M 338.208679 -1 
L 338.210499 346.6 
M 338.949361 346.6 
L 338.951181 -1 
M 338.951655 -1 
L 338.953475 346.6 
M 340.80691 346.6 
L 340.808728 -0.380805 
L 341.180191 39.478981 
L 341.181801 346.6 
M 342.293319 346.6 
L 342.294577 106.878268 
L 342.666039 86.198446 
L 342.667405 346.6 
M 344.893209 346.6 
L 344.894811 41.037723 
L 345.266273 34.204386 
L 345.267911 346.6 
M 346.751103 346.6 
L 346.752121 152.739631 
L 347.123583 78.501681 
L 347.495046 79.714769 
L 347.866508 72.822414 
L 348.23797 85.372638 
L 348.609432 91.157515 
L 349.352356 126.682286 
L 349.723818 93.0892 
L 349.725148 346.6 
M 350.465634 346.6 
L 350.466742 135.631648 
L 350.46785 346.6 
M 351.208603 346.6 
L 351.209666 144.106269 
L 351.581128 129.752254 
L 351.95259 139.600626 
L 352.324052 228.211849 
L 352.695514 176.337411 
L 353.066976 157.860755 
L 353.438438 165.889014 
L 353.8099 187.65974 
L 353.810736 346.6 
M 354.923699 346.6 
L 354.924287 234.829735 
L 355.295749 215.850023 
L 355.667211 165.517135 
L 356.038673 222.738359 
L 356.410135 171.736172 
L 356.781597 217.579992 
L 357.524521 171.296789 
L 358.267445 183.828109 
L 358.638907 183.197338 
L 359.010369 196.035532 
L 359.381831 193.560893 
L 359.753293 183.212529 
L 360.124755 182.47564 
L 360.496217 185.013763 
L 360.86768 185.068921 
L 361.239142 187.569767 
L 361.610604 187.15726 
L 361.982066 187.028071 
L 362.353528 185.87337 
L 362.72499 183.619409 
L 363.096452 185.995911 
L 363.467914 186.124151 
L 363.839376 185.631945 
L 364.210838 184.443842 
L 364.953762 185.466358 
L 366.43961 184.676386 
L 367.553997 184.868909 
L 367.925459 185.072396 
L 368.296921 184.963744 
L 368.668383 184.977997 
L 369.039845 184.841123 
L 369.411307 184.841059 
L 369.782769 184.956801 
L 372.011541 184.942708 
L 380.555169 184.908758 
L 399.499733 184.756374 
L 408.043361 184.47748 
L 413.615292 184.083094 
L 417.701374 183.586075 
L 421.044533 182.96476 
L 423.644767 182.283582 
L 425.873539 181.508048 
L 428.102312 180.494901 
L 429.959622 179.412377 
L 431.44547 178.346793 
L 431.44547 178.346793 
" clip-path="url(#p451829f29d)" style="fill: none; stroke: #e24a33; stroke-width: 1.5; stroke-linecap: square"/>
   </g>
   <g id="line2d_56">
    <path d="M 102.688757 346.6 
L 102.690524 -1 
M 108.655065 -1 
L 108.656837 346.6 
M 112.347257 346.6 
L 112.349026 -1 
M 114.598473 -1 
L 114.600245 346.6 
M 117.176532 346.6 
L 117.178303 -1 
M 118.312924 -1 
L 118.314697 346.6 
M 120.148384 346.6 
L 120.150156 -1 
M 120.913054 -1 
L 120.914828 346.6 
M 122.377275 346.6 
L 122.379047 -1 
M 123.14122 -1 
L 123.142996 346.6 
M 124.234704 346.6 
L 124.236477 -1 
M 124.627481 -1 
L 124.629255 346.6 
M 125.720638 346.6 
L 125.722411 -1 
M 126.1131 -1 
L 126.114876 346.6 
M 126.835034 346.6 
L 126.836808 -1 
M 127.2276 -1 
L 127.229375 346.6 
M 127.949478 346.6 
L 127.951252 -1 
M 128.341853 -1 
L 128.343628 346.6 
M 129.063978 346.6 
L 129.065752 -1 
M 129.08496 -1 
L 129.086735 346.6 
M 129.806874 346.6 
L 129.808649 -1 
M 130.198788 -1 
L 130.200565 346.6 
M 130.921625 346.6 
L 130.923401 -1 
M 130.941932 -1 
L 130.943708 346.6 
M 131.664707 346.6 
L 131.666484 -1 
M 132.056577 -1 
L 132.058352 346.6 
M 132.778782 346.6 
L 132.780558 -1 
M 132.799396 -1 
L 132.801171 346.6 
M 133.522067 346.6 
L 133.523844 -1 
M 133.913749 -1 
L 133.915525 346.6 
M 135.007773 346.6 
L 135.009549 -1 
M 135.39952 -1 
L 135.401295 346.6 
M 138.722416 346.6 
L 138.724192 -1 
M 139.113899 -1 
L 139.115676 346.6 
M 140.2084 346.6 
L 140.210177 -1 
M 140.228259 -1 
L 140.230036 346.6 
M 140.951325 346.6 
L 140.953102 -1 
M 140.971182 -1 
L 140.972959 346.6 
M 141.694369 346.6 
L 141.696147 -1 
M 141.713986 -1 
L 141.715763 346.6 
M 143.180512 346.6 
L 143.182291 -1 
M 143.571009 -1 
L 143.572789 346.6 
M 145.037699 346.6 
L 145.039477 -1 
M 145.056972 -1 
L 145.058751 346.6 
M 145.780659 346.6 
L 145.782438 -1 
M 145.79986 -1 
L 145.801638 346.6 
M 148.009433 346.6 
L 148.011211 -1 
M 148.399806 -1 
L 148.401586 346.6 
M 150.609846 346.6 
L 150.611626 -1 
M 150.628686 -1 
L 150.630465 346.6 
M 151.353094 346.6 
L 151.354876 -1 
M 151.742818 -1 
L 151.744599 346.6 
M 153.210416 346.6 
L 153.212197 -1 
M 153.599491 -1 
L 153.601275 346.6 
M 154.325064 346.6 
L 154.326847 -1 
M 154.714387 -1 
L 154.716169 346.6 
M 155.439079 346.6 
L 155.44086 -1 
M 155.457465 -1 
L 155.459246 346.6 
M 156.18203 346.6 
L 156.183811 -1 
M 156.200362 -1 
L 156.202143 346.6 
M 156.925216 346.6 
L 156.926998 -1 
M 156.943023 -1 
L 156.944805 346.6 
M 157.668044 346.6 
L 157.669826 -1 
M 158.057468 -1 
L 158.05925 346.6 
M 159.896887 346.6 
L 159.898669 -1 
M 161.028871 -1 
L 161.030655 346.6 
M 161.754293 346.6 
L 161.756076 -1 
M 161.771959 -1 
L 161.773741 346.6 
M 162.497789 346.6 
L 162.499574 -1 
M 162.514309 -1 
L 162.516094 346.6 
M 163.61178 346.6 
L 163.613563 -1 
M 163.629092 -1 
L 163.630875 346.6 
M 164.354628 346.6 
L 164.356411 -1 
M 166.971915 -1 
L 166.9737 346.6 
M 167.698019 346.6 
L 167.699804 -1 
M 167.715017 -1 
L 167.716801 346.6 
M 168.440895 346.6 
L 168.442679 -1 
M 169.200786 -1 
L 169.20257 346.6 
M 169.926995 346.6 
L 169.92878 -1 
M 169.943585 -1 
L 169.94537 346.6 
M 171.412954 346.6 
L 171.41474 -1 
M 171.429321 -1 
L 171.431107 346.6 
M 172.156038 346.6 
L 172.157825 -1 
M 172.543855 -1 
L 172.54564 346.6 
M 175.127805 346.6 
L 175.129592 -1 
M 175.14371 -1 
L 175.145497 346.6 
M 175.870709 346.6 
L 175.872496 -1 
M 175.886655 -1 
L 175.888442 346.6 
M 177.727963 346.6 
L 177.729749 -1 
M 178.115322 -1 
L 178.11711 346.6 
M 181.071285 346.6 
L 181.073073 -1 
M 181.087016 -1 
L 181.088803 346.6 
M 182.185955 346.6 
L 182.187744 -1 
M 184.058552 -1 
L 184.06034 346.6 
M 185.157555 346.6 
L 185.159343 -1 
M 186.28723 -1 
L 186.289018 346.6 
M 189.986933 346.6 
L 189.988723 -1 
M 190.001544 -1 
L 190.003335 346.6 
M 190.729774 346.6 
L 190.731563 -1 
M 190.744552 -1 
L 190.746342 346.6 
M 191.47282 346.6 
L 191.47461 -1 
M 191.487354 -1 
L 191.489144 346.6 
M 192.958726 346.6 
L 192.960516 -1 
M 192.973144 -1 
L 192.974934 346.6 
M 194.816139 346.6 
L 194.81793 -1 
M 194.83035 -1 
L 194.832142 346.6 
M 195.930629 346.6 
L 195.93242 -1 
M 195.944633 -1 
L 195.946424 346.6 
M 197.788111 346.6 
L 197.789903 -1 
M 197.80177 -1 
L 197.803563 346.6 
M 199.645401 346.6 
L 199.647193 -1 
M 199.659101 -1 
L 199.660893 346.6 
M 202.24586 346.6 
L 202.247653 -1 
M 202.630666 -1 
L 202.632459 346.6 
M 203.731956 346.6 
L 203.733751 -1 
M 204.116388 -1 
L 204.118182 346.6 
M 204.846567 346.6 
L 204.848363 -1 
M 205.601798 -1 
L 205.603594 346.6 
M 207.817943 346.6 
L 207.819737 -1 
M 208.201328 -1 
L 208.203127 346.6 
M 208.932412 346.6 
L 208.934206 -1 
M 209.316518 -1 
L 209.318313 346.6 
M 213.761766 346.6 
L 213.763563 -1 
M 214.88817 -1 
L 214.889966 346.6 
M 215.619352 346.6 
L 215.621149 -1 
M 215.630882 -1 
L 215.632679 346.6 
M 217.476466 346.6 
L 217.478263 -1 
M 217.488389 -1 
L 217.490186 346.6 
M 218.21974 346.6 
L 218.221539 -1 
M 218.230961 -1 
L 218.232759 346.6 
M 218.962489 346.6 
L 218.964287 -1 
M 218.974061 -1 
L 218.975859 346.6 
M 220.448332 346.6 
L 220.450129 -1 
M 220.459915 -1 
L 220.461713 346.6 
M 221.934259 346.6 
L 221.936057 -1 
M 223.059878 -1 
L 223.061677 346.6 
M 223.792257 346.6 
L 223.794059 -1 
M 223.802303 -1 
L 223.804104 346.6 
M 224.906144 346.6 
L 224.907943 -1 
M 225.660156 -1 
L 225.661954 346.6 
M 227.135055 346.6 
L 227.136854 -1 
M 227.145824 -1 
L 227.147624 346.6 
M 227.878267 346.6 
L 227.880068 -1 
M 227.888458 -1 
L 227.890259 346.6 
M 229.735771 346.6 
L 229.737573 -1 
M 229.745574 -1 
L 229.747376 346.6 
M 230.47859 346.6 
L 230.480391 -1 
M 231.603182 -1 
L 231.604982 346.6 
M 232.335748 346.6 
L 232.337548 -1 
M 233.088706 -1 
L 233.090508 346.6 
M 233.821851 346.6 
L 233.823653 -1 
M 234.203243 -1 
L 234.205044 346.6 
M 234.936123 346.6 
L 234.937925 -1 
M 234.94616 -1 
L 234.947961 346.6 
M 235.679041 346.6 
L 235.680842 -1 
M 235.689091 -1 
L 235.690892 346.6 
M 236.422095 346.6 
L 236.423897 -1 
M 236.431885 -1 
L 236.433687 346.6 
M 237.165233 346.6 
L 237.167036 -1 
M 237.174593 -1 
L 237.176396 346.6 
M 237.908198 346.6 
L 237.910002 -1 
M 237.917476 -1 
L 237.919279 346.6 
M 239.022484 346.6 
L 239.024287 -1 
M 239.403232 -1 
L 239.405036 346.6 
M 240.508675 346.6 
L 240.51048 -1 
M 242.003364 -1 
L 242.005168 346.6 
M 242.737341 346.6 
L 242.739145 -1 
M 243.117949 -1 
L 243.119753 346.6 
M 243.851839 346.6 
L 243.853643 -1 
M 244.603695 -1 
L 244.605499 346.6 
M 247.195077 346.6 
L 247.196882 -1 
M 247.946137 -1 
L 247.947944 346.6 
M 248.680939 346.6 
L 248.682744 -1 
M 250.175255 -1 
L 250.17706 346.6 
M 250.910241 346.6 
L 250.912048 -1 
M 251.660813 -1 
L 251.66262 346.6 
M 253.138725 346.6 
L 253.140531 -1 
M 253.518139 -1 
L 253.519946 346.6 
M 254.996576 346.6 
L 254.998384 -1 
M 255.003603 -1 
L 255.005411 346.6 
M 256.110565 346.6 
L 256.112372 -1 
M 256.860989 -1 
L 256.862797 346.6 
M 257.596494 346.6 
L 257.598301 -1 
M 257.604155 -1 
L 257.605962 346.6 
M 259.453897 346.6 
L 259.455704 -1 
M 259.461372 -1 
L 259.463179 346.6 
M 260.196894 346.6 
L 260.198702 -1 
M 260.575715 -1 
L 260.577523 346.6 
M 261.68278 346.6 
L 261.684589 -1 
M 262.061314 -1 
L 262.063124 346.6 
M 262.797207 346.6 
L 262.799016 -1 
M 262.804377 -1 
L 262.806186 346.6 
M 263.540182 346.6 
L 263.541991 -1 
M 264.29008 -1 
L 264.291889 346.6 
M 265.397594 346.6 
L 265.399404 -1 
M 265.404459 -1 
L 265.406268 346.6 
M 266.1408 346.6 
L 266.14261 -1 
M 266.1471 -1 
L 266.148911 346.6 
M 266.883552 346.6 
L 266.885361 -1 
M 267.633047 -1 
L 267.634857 346.6 
M 268.369569 346.6 
L 268.37138 -1 
M 268.375875 -1 
L 268.377686 346.6 
M 269.48408 346.6 
L 269.485891 -1 
M 269.490136 -1 
L 269.491947 346.6 
M 270.598509 346.6 
L 270.60032 -1 
M 272.461876 -1 
L 272.463687 346.6 
M 273.198783 346.6 
L 273.200595 -1 
M 273.204674 -1 
L 273.206485 346.6 
M 274.313809 346.6 
L 274.315623 -1 
M 274.69011 -1 
L 274.691924 346.6 
M 275.799172 346.6 
L 275.800984 -1 
M 275.804753 -1 
L 275.806565 346.6 
M 278.399648 346.6 
L 278.401462 -1 
M 279.147841 -1 
L 279.149654 346.6 
M 280.628398 346.6 
L 280.630211 -1 
M 282.490616 -1 
L 282.49243 346.6 
M 283.2291 346.6 
L 283.230916 -1 
M 283.233304 -1 
L 283.235119 346.6 
M 283.971691 346.6 
L 283.973505 -1 
M 284.347893 -1 
L 284.349708 346.6 
M 285.086165 346.6 
L 285.087979 -1 
M 285.462366 -1 
L 285.464181 346.6 
M 286.200691 346.6 
L 286.202506 -1 
M 286.205107 -1 
L 286.206922 346.6 
M 288.058255 346.6 
L 288.060072 -1 
M 288.433638 -1 
L 288.435454 346.6 
M 289.172553 346.6 
L 289.174369 -1 
M 289.919491 -1 
L 289.921307 346.6 
M 290.658365 346.6 
L 290.660181 -1 
M 291.033979 -1 
L 291.035795 346.6 
M 292.144392 346.6 
L 292.146209 -1 
M 293.262162 -1 
L 293.263981 346.6 
M 295.116577 346.6 
L 295.118396 -1 
M 295.490948 -1 
L 295.492767 346.6 
M 298.088027 346.6 
L 298.089845 -1 
M 298.091339 -1 
L 298.093157 346.6 
M 299.945479 346.6 
L 299.947298 -1 
M 300.691436 -1 
L 300.693254 346.6 
M 301.431647 346.6 
L 301.433467 -1 
M 302.177105 -1 
L 302.178924 346.6 
M 303.28871 346.6 
L 303.290529 -1 
M 303.291593 -1 
L 303.293412 346.6 
M 304.031952 346.6 
L 304.033772 -1 
M 304.405857 -1 
L 304.407676 346.6 
M 305.517607 346.6 
L 305.519427 -1 
M 305.520239 -1 
L 305.522059 346.6 
M 306.260628 346.6 
L 306.262448 -1 
M 307.006015 -1 
L 307.007835 346.6 
M 308.117978 346.6 
L 308.119798 -1 
M 308.120337 -1 
L 308.122157 346.6 
M 310.346912 346.6 
L 310.348733 -1 
M 310.348946 -1 
L 310.350767 346.6 
M 311.833031 346.6 
L 311.834688 30.542006 
L 312.577612 1.549603 
L 312.57942 346.6 
M 313.31878 346.6 
L 313.320536 11.498547 
L 313.691998 22.236267 
L 314.06346 23.438171 
L 314.434922 32.430456 
L 314.43657 346.6 
M 316.662106 346.6 
L 316.663695 43.579802 
L 317.035157 82.706233 
L 317.406619 105.813561 
L 317.778081 106.528699 
L 317.779341 346.6 
M 319.262604 346.6 
L 319.263929 94.141143 
L 319.265254 346.6 
M 320.377086 346.6 
L 320.378315 112.317331 
L 320.749777 179.768299 
L 321.12124 91.233481 
L 321.122579 346.6 
M 321.862994 346.6 
L 321.864164 123.859289 
L 321.865333 346.6 
M 323.720223 346.6 
L 323.721474 108.20052 
L 324.092936 211.837819 
L 324.464398 183.487824 
L 324.465255 346.6 
M 325.577554 346.6 
L 325.578784 112.269335 
L 325.950246 120.393426 
L 326.321708 120.194514 
L 326.69317 141.538826 
L 327.064632 169.853408 
L 327.436094 127.80607 
L 327.807557 125.626327 
L 328.179019 138.598397 
L 328.550481 134.538742 
L 328.921943 132.948942 
L 329.293405 151.992064 
L 329.664867 132.207571 
L 330.407791 137.409258 
L 330.779253 134.589913 
L 331.522177 145.430432 
L 332.265101 137.60088 
L 333.008025 143.788563 
L 333.379487 141.077362 
L 333.750949 143.422478 
L 334.122411 139.692057 
L 334.493874 142.590887 
L 334.865336 140.674885 
L 335.236798 140.746665 
L 335.979722 143.807175 
L 336.351184 141.348707 
L 336.722646 142.708922 
L 337.094108 141.720125 
L 337.46557 142.276777 
L 338.208494 142.000269 
L 338.579956 142.572283 
L 338.951418 141.847504 
L 339.32288 142.517245 
L 339.694342 142.453279 
L 340.065804 142.599392 
L 340.437266 142.45653 
L 340.808728 142.177935 
L 341.923115 142.355789 
L 342.666039 142.296135 
L 343.037501 142.369066 
L 343.780425 142.343089 
L 344.523349 142.348742 
L 345.266273 142.237312 
L 346.380659 142.334202 
L 348.23797 142.28753 
L 366.811072 142.299882 
L 395.042189 142.173563 
L 404.32874 141.932296 
L 410.272133 141.578134 
L 414.729678 141.103333 
L 418.072836 140.549893 
L 421.044533 139.842406 
L 423.644767 138.985889 
L 425.873539 138.009049 
L 427.73085 136.968361 
L 429.58816 135.660849 
L 431.074008 134.372263 
L 431.44547 134.010233 
L 431.44547 134.010233 
" clip-path="url(#p451829f29d)" style="fill: none; stroke: #348abd; stroke-width: 1.5; stroke-linecap: square"/>
   </g>
   <g id="line2d_57">
    <path d="M 102.694387 346.6 
L 102.696182 -1 
M 108.649483 -1 
L 108.651282 346.6 
M 112.352733 346.6 
L 112.35453 -1 
M 114.592996 -1 
L 114.594795 346.6 
M 117.181933 346.6 
L 117.18373 -1 
M 118.307507 -1 
L 118.309306 346.6 
M 120.153737 346.6 
L 120.155536 -1 
M 120.90768 -1 
L 120.90948 346.6 
M 122.382593 346.6 
L 122.384391 -1 
M 123.135867 -1 
L 123.137669 346.6 
M 124.239993 346.6 
L 124.241792 -1 
M 124.622166 -1 
L 124.623966 346.6 
M 125.725903 346.6 
L 125.727703 -1 
M 126.107805 -1 
L 126.109606 346.6 
M 126.840281 346.6 
L 126.84208 -1 
M 127.222327 -1 
L 127.224128 346.6 
M 127.954707 346.6 
L 127.956506 -1 
M 128.336596 -1 
L 128.338397 346.6 
M 129.069191 346.6 
L 129.070991 -1 
M 129.079722 -1 
L 129.081522 346.6 
M 129.812073 346.6 
L 129.813873 -1 
M 130.193553 -1 
L 130.195356 346.6 
M 130.926815 346.6 
L 130.928617 -1 
M 130.936716 -1 
L 130.938518 346.6 
M 131.669889 346.6 
L 131.671691 -1 
M 132.051389 -1 
L 132.053189 346.6 
M 132.783936 346.6 
L 132.785736 -1 
M 132.794218 -1 
L 132.796018 346.6 
M 133.527217 346.6 
L 133.52902 -1 
M 133.908589 -1 
L 133.91039 346.6 
M 135.012893 346.6 
L 135.014695 -1 
M 135.394384 -1 
L 135.396185 346.6 
M 138.727472 346.6 
L 138.729273 -1 
M 139.108822 -1 
L 139.110624 346.6 
M 140.213433 346.6 
L 140.215235 -1 
M 140.223201 -1 
L 140.225003 346.6 
M 140.956346 346.6 
L 140.958148 -1 
M 140.966137 -1 
L 140.967938 346.6 
M 141.69938 346.6 
L 141.701183 -1 
M 141.70895 -1 
L 141.710752 346.6 
M 143.185505 346.6 
L 143.187309 -1 
M 143.565998 -1 
L 143.567802 346.6 
M 145.042656 346.6 
L 145.044459 -1 
M 145.051991 -1 
L 145.053794 346.6 
M 145.785604 346.6 
L 145.787408 -1 
M 145.79489 -1 
L 145.796693 346.6 
M 148.014339 346.6 
L 148.016142 -1 
M 148.394874 -1 
L 148.396679 346.6 
M 150.614711 346.6 
L 150.616515 -1 
M 150.623796 -1 
L 150.6256 346.6 
M 151.357955 346.6 
L 151.35976 -1 
M 151.737942 -1 
L 151.739747 346.6 
M 153.215244 346.6 
L 153.217049 -1 
M 153.594631 -1 
L 153.596439 346.6 
M 154.32988 346.6 
L 154.331686 -1 
M 154.70956 -1 
L 154.711365 346.6 
M 155.443865 346.6 
L 155.44567 -1 
M 155.452655 -1 
L 155.454459 346.6 
M 156.186804 346.6 
L 156.188609 -1 
M 156.195564 -1 
L 156.197369 346.6 
M 156.929984 346.6 
L 156.931789 -1 
M 156.938232 -1 
L 156.940037 346.6 
M 157.672796 346.6 
L 157.674601 -1 
M 158.052698 -1 
L 158.054503 346.6 
M 159.901602 346.6 
L 159.903407 -1 
M 161.024146 -1 
L 161.025953 346.6 
M 161.758978 346.6 
L 161.760784 -1 
M 161.767251 -1 
L 161.769056 346.6 
M 162.502475 346.6 
L 162.504284 -1 
M 162.509599 -1 
L 162.511407 346.6 
M 163.616437 346.6 
L 163.618243 -1 
M 163.624412 -1 
L 163.626219 346.6 
M 164.35927 346.6 
L 164.361076 -1 
M 166.967286 -1 
L 166.969093 346.6 
M 167.702608 346.6 
L 167.704415 -1 
M 167.710405 -1 
L 167.712212 346.6 
M 168.44547 346.6 
L 168.447276 -1 
M 169.196199 -1 
L 169.198006 346.6 
M 169.93155 346.6 
L 169.933357 -1 
M 169.939008 -1 
L 169.940815 346.6 
M 171.417486 346.6 
L 171.419294 -1 
M 171.424768 -1 
L 171.426576 346.6 
M 172.160561 346.6 
L 172.162369 -1 
M 172.539325 -1 
L 172.541132 346.6 
M 175.132277 346.6 
L 175.134086 -1 
M 175.139217 -1 
L 175.141026 346.6 
M 175.875167 346.6 
L 175.876975 -1 
M 175.882175 -1 
L 175.883984 346.6 
M 177.732386 346.6 
L 177.734195 -1 
M 178.110879 -1 
L 178.112689 346.6 
M 181.075654 346.6 
L 181.077463 -1 
M 181.082626 -1 
L 181.084434 346.6 
M 182.190311 346.6 
L 182.192121 -1 
M 184.054211 -1 
L 184.05602 346.6 
M 185.161855 346.6 
L 185.163665 -1 
M 186.282926 -1 
L 186.284735 346.6 
M 189.991157 346.6 
L 189.992968 -1 
M 189.997299 -1 
L 189.99911 346.6 
M 190.733983 346.6 
L 190.735793 -1 
M 190.740322 -1 
L 190.742132 346.6 
M 191.477019 346.6 
L 191.47883 -1 
M 191.483134 -1 
L 191.484945 346.6 
M 192.9629 346.6 
L 192.964711 -1 
M 192.968949 -1 
L 192.97076 346.6 
M 194.820283 346.6 
L 194.822094 -1 
M 194.826187 -1 
L 194.827998 346.6 
M 195.934755 346.6 
L 195.936567 -1 
M 195.940486 -1 
L 195.942298 346.6 
M 197.792208 346.6 
L 197.79402 -1 
M 197.797653 -1 
L 197.799466 346.6 
M 199.649465 346.6 
L 199.651277 -1 
M 199.655017 -1 
L 199.656829 346.6 
M 202.249882 346.6 
L 202.251695 -1 
M 202.626632 -1 
L 202.628445 346.6 
M 203.735958 346.6 
L 203.737772 -1 
M 204.112378 -1 
L 204.114191 346.6 
M 204.850554 346.6 
L 204.85237 -1 
M 205.597805 -1 
L 205.59962 346.6 
M 207.82187 346.6 
L 207.823683 -1 
M 208.197366 -1 
L 208.199185 346.6 
M 208.936321 346.6 
L 208.938135 -1 
M 209.312593 -1 
L 209.314408 346.6 
M 213.765597 346.6 
L 213.767412 -1 
M 214.884339 -1 
L 214.886154 346.6 
M 215.623155 346.6 
L 215.624972 -1 
M 215.627059 -1 
L 215.628876 346.6 
M 217.480232 346.6 
L 217.482047 -1 
M 217.484604 -1 
L 217.486419 346.6 
M 218.223501 346.6 
L 218.225318 -1 
M 218.227182 -1 
L 218.228999 346.6 
M 218.966233 346.6 
L 218.968049 -1 
M 218.970299 -1 
L 218.972115 346.6 
M 220.452048 346.6 
L 220.453864 -1 
M 220.45618 -1 
L 220.457996 346.6 
M 221.937952 346.6 
L 221.939768 -1 
M 223.056184 -1 
L 223.058001 346.6 
M 223.79593 346.6 
L 223.797749 -1 
M 223.798612 -1 
L 223.800432 346.6 
M 224.909787 346.6 
L 224.911604 -1 
M 225.656509 -1 
L 225.658325 346.6 
M 227.138661 346.6 
L 227.140478 -1 
M 227.142201 -1 
L 227.144018 346.6 
M 227.881866 346.6 
L 227.883684 -1 
M 227.884842 -1 
L 227.886661 346.6 
M 229.73934 346.6 
L 229.741159 -1 
M 229.741988 -1 
L 229.743808 346.6 
M 230.482143 346.6 
L 230.483962 -1 
M 231.599634 -1 
L 231.601452 346.6 
M 232.339265 346.6 
L 232.341083 -1 
M 233.085179 -1 
L 233.086999 346.6 
M 233.825347 346.6 
L 233.827166 -1 
M 234.199738 -1 
L 234.201557 346.6 
M 234.939597 346.6 
L 234.941416 -1 
M 234.942669 -1 
L 234.944487 346.6 
M 235.682501 346.6 
L 235.68432 -1 
M 235.685614 -1 
L 235.687432 346.6 
M 236.425544 346.6 
L 236.427363 -1 
M 236.428418 -1 
L 236.430237 346.6 
M 237.168673 346.6 
L 237.170493 -1 
M 237.171136 -1 
L 237.172956 346.6 
M 237.911626 346.6 
L 237.913446 -1 
M 237.914032 -1 
L 237.915852 346.6 
M 239.02589 346.6 
L 239.02771 -1 
M 239.399813 -1 
L 239.401633 346.6 
M 240.512059 346.6 
L 240.51388 -1 
M 241.99999 -1 
L 242.001811 346.6 
M 242.740684 346.6 
L 242.742505 -1 
M 243.114598 -1 
L 243.116418 346.6 
M 243.855163 346.6 
L 243.856984 -1 
M 244.600369 -1 
L 244.602189 346.6 
M 247.198343 346.6 
L 247.200164 -1 
M 247.690833 -1 
L 247.943214 59.975644 
L 247.944718 346.6 
M 248.684178 346.6 
L 248.685999 -1 
M 249.198521 -1 
L 249.429063 27.497773 
L 249.628364 -1 
M 250.172025 -1 
L 250.173846 346.6 
M 250.913413 346.6 
L 250.914911 61.092959 
L 251.286373 28.065412 
L 251.657835 40.048578 
L 251.659442 346.6 
M 253.141886 346.6 
L 253.143683 3.642432 
L 253.515145 31.46488 
L 253.516797 346.6 
M 254.999619 346.6 
L 255.000993 84.605775 
L 255.002368 346.6 
M 256.113671 346.6 
L 256.11538 20.572124 
L 256.858304 71.444191 
L 256.859747 346.6 
M 257.599571 346.6 
L 257.601228 30.488209 
L 257.602885 346.6 
M 258.343038 346.6 
L 258.344152 134.457266 
L 258.345266 346.6 
M 259.085847 346.6 
L 259.087076 112.404031 
L 259.458538 41.069353 
L 259.46014 346.6 
M 260.199913 346.6 
L 260.201462 51.164981 
L 260.572924 45.069251 
L 260.574505 346.6 
M 261.685772 346.6 
L 261.68731 53.153842 
L 262.058773 78.022714 
L 262.060182 346.6 
M 262.800176 346.6 
L 262.801697 56.569204 
L 263.173159 154.010774 
L 263.544621 62.424222 
L 263.916083 96.588415 
L 264.287545 73.916318 
L 264.288975 346.6 
M 265.400492 346.6 
L 265.401931 72.281763 
L 265.773393 200.39621 
L 266.144855 97.868727 
L 266.14616 346.6 
M 266.886394 346.6 
L 266.887779 82.470793 
L 267.259241 82.416866 
L 267.630703 88.668687 
L 268.002165 195.859558 
L 268.373627 95.256935 
L 268.74509 214.319437 
L 269.116552 132.400605 
L 269.488014 100.975405 
L 269.859476 134.513307 
L 270.230938 139.602514 
L 270.6024 101.876976 
L 270.973862 99.389201 
L 271.345324 96.005423 
L 271.716786 96.145979 
L 272.088248 99.783835 
L 272.45971 95.879104 
L 272.831172 126.143024 
L 273.202634 101.64496 
L 273.574096 118.622453 
L 273.945558 121.775803 
L 274.31702 108.370644 
L 274.688482 107.84543 
L 275.059945 113.804463 
L 275.431407 112.286479 
L 275.802869 104.85935 
L 276.174331 111.711559 
L 276.545793 111.603893 
L 276.917255 109.366027 
L 277.288717 110.595602 
L 277.660179 112.832112 
L 278.031641 108.69398 
L 279.146027 105.082747 
L 279.517489 112.154453 
L 279.888951 110.855885 
L 280.260413 110.260248 
L 280.631875 106.891111 
L 281.003337 106.445768 
L 281.374799 106.63611 
L 281.746262 106.36417 
L 282.860648 108.845417 
L 283.23211 108.407896 
L 283.603572 109.730165 
L 283.975034 107.49643 
L 284.346496 108.051074 
L 284.717958 108.929217 
L 285.08942 107.850085 
L 285.460882 107.605393 
L 285.832344 109.007762 
L 286.203806 108.206644 
L 286.575268 109.120176 
L 287.318192 108.927178 
L 287.689654 108.531116 
L 288.432579 108.434891 
L 288.804041 108.836598 
L 289.175503 108.36845 
L 289.546965 108.243486 
L 289.918427 108.41544 
L 290.289889 108.714861 
L 290.661351 108.2926 
L 291.032813 108.289355 
L 291.404275 108.699875 
L 291.775737 108.68947 
L 292.147199 108.436512 
L 292.890123 108.500144 
L 293.261585 108.518569 
L 293.633047 108.654969 
L 295.118896 108.520444 
L 302.176675 108.517912 
L 304.033985 108.523639 
L 309.605916 108.527711 
L 326.69317 108.526234 
L 389.84172 108.427918 
L 400.61412 108.197966 
L 406.928975 107.859766 
L 411.386519 107.425889 
L 415.10114 106.852439 
L 418.072836 106.181196 
L 420.673071 105.371079 
L 422.901843 104.450517 
L 424.759153 103.473704 
L 426.616464 102.252135 
L 428.473774 100.718977 
L 429.959622 99.209966 
L 431.44547 97.388035 
L 431.44547 97.388035 
" clip-path="url(#p451829f29d)" style="fill: none; stroke: #988ed5; stroke-width: 1.5; stroke-linecap: square"/>
   </g>
   <g id="line2d_58">
    <path d="M 102.700081 346.6 
L 102.70155 66.513644 
L 111.988102 98.404635 
L 112.359564 78.367953 
L 116.817108 93.675629 
L 117.188571 82.484359 
L 119.788805 91.413837 
L 120.160267 83.844064 
L 122.017577 90.222262 
L 122.389039 84.636866 
L 123.874888 89.739425 
L 124.24635 85.409191 
L 125.360736 89.23611 
L 125.732198 85.77205 
L 126.475122 88.32333 
L 126.846584 85.493256 
L 127.589508 88.044535 
L 127.96097 85.698678 
L 128.703894 88.249957 
L 129.075356 86.286058 
L 129.446818 87.561698 
L 129.81828 85.906818 
L 130.561205 88.458097 
L 130.932667 87.058383 
L 131.304129 88.334022 
L 132.047053 86.145603 
L 132.418515 87.421242 
L 132.789977 86.575546 
L 133.161439 87.851185 
L 133.904363 86.554051 
L 134.275825 87.82969 
L 135.018749 86.961095 
L 135.390211 86.65961 
L 135.761673 87.93525 
L 136.504597 87.55601 
L 137.247522 87.431935 
L 137.990446 87.522127 
L 138.361908 87.637357 
L 138.73337 86.715835 
L 139.847756 87.516 
L 140.219218 86.927603 
L 140.59068 87.311958 
L 140.962142 86.878981 
L 141.333604 87.334647 
L 141.705066 87.033163 
L 142.076528 87.549574 
L 142.819452 87.238585 
L 143.562377 87.171502 
L 144.305301 87.31 
L 144.676763 87.446725 
L 145.048225 87.089388 
L 145.419687 87.32265 
L 145.791149 87.09813 
L 146.162611 87.412842 
L 146.905535 87.249372 
L 147.648459 87.30627 
L 148.019921 87.024758 
L 148.762845 87.378875 
L 149.505769 87.225363 
L 150.248694 87.290668 
L 150.620156 87.108822 
L 150.991618 87.266259 
L 151.734542 87.187973 
L 152.848928 87.225836 
L 153.591852 87.213366 
L 153.963314 87.283079 
L 154.706238 87.191871 
L 155.0777 87.226822 
L 155.449162 87.143249 
L 155.820624 87.276952 
L 156.192086 87.144077 
L 156.935011 87.198988 
L 158.420859 87.241145 
L 161.021093 87.205803 
L 161.392555 87.254896 
L 161.764017 87.186183 
L 162.506941 87.2132 
L 164.735714 87.198787 
L 176.993962 87.221051 
L 187.394899 87.214807 
L 260.944386 87.214 
L 387.241486 87.10362 
L 397.270961 86.875224 
L 403.585816 86.52688 
L 408.043361 86.080861 
L 411.757981 85.49286 
L 414.729678 84.806742 
L 417.329912 83.981753 
L 419.558684 83.048344 
L 421.415995 82.062575 
L 423.273305 80.836501 
L 425.130615 79.308066 
L 426.616464 77.81478 
L 428.102312 76.02616 
L 429.58816 73.878992 
L 431.074008 71.294973 
L 431.44547 70.569787 
L 431.44547 70.569787 
" clip-path="url(#p451829f29d)" style="fill: none; stroke: #777777; stroke-width: 1.5; stroke-linecap: square"/>
   </g>
   <g id="line2d_59">
    <path d="M -1 87.214 
L 380.926631 87.105018 
L 391.327568 86.865775 
L 397.642423 86.509038 
L 402.099968 86.054203 
L 405.814588 85.457848 
L 408.786285 84.766593 
L 411.386519 83.941857 
L 413.615292 83.016986 
L 415.844064 81.8307 
L 417.701374 80.589721 
L 419.558684 79.062665 
L 421.044533 77.591215 
L 422.530381 75.854143 
L 424.016229 73.803501 
L 425.502077 71.382684 
L 426.987926 68.52487 
L 428.473774 65.151173 
L 429.959622 61.168468 
L 431.44547 56.466819 
L 431.44547 56.466819 
" clip-path="url(#p451829f29d)" style="fill: none; stroke: #fbc15e; stroke-width: 1.5; stroke-linecap: square"/>
   </g>
   <g id="patch_3">
    <path d="M 41.800346 299.608 
L 41.800346 16.416 
" style="fill: none; stroke: #ffffff; stroke-linejoin: miter; stroke-linecap: square"/>
   </g>
   <g id="patch_4">
    <path d="M 450 299.608 
L 450 16.416 
" style="fill: none; stroke: #ffffff; stroke-linejoin: miter; stroke-linecap: square"/>
   </g>
   <g id="patch_5">
    <path d="M 41.800346 299.608 
L 450 299.608 
" style="fill: none; stroke: #ffffff; stroke-linejoin: miter; stroke-linecap: square"/>
   </g>
   <g id="patch_6">
    <path d="M 41.800346 16.416 
L 450 16.416 
" style="fill: none; stroke: #ffffff; stroke-linejoin: miter; stroke-linecap: square"/>
   </g>
  </g>
 </g>
 <defs>
  <clipPath id="p451829f29d">
   <rect x="41.800346" y="16.416" width="408.199654" height="283.192"/>
  </clipPath>
 </defs>
</svg>
