<?xml version="1.0" encoding="utf-8" standalone="no"?>
<!DOCTYPE svg PUBLIC "-//W3C//DTD SVG 1.1//EN"
  "http://www.w3.org/Graphics/SVG/1.1/DTD/svg11.dtd">
<svg xmlns:xlink="http://www.w3.org/1999/xlink" width="460.8pt" height="345.6pt" viewBox="0 0 460.8 345.6" xmlns="http://www.w3.org/2000/svg" version="1.1">
 <metadata>
  <rdf:RDF xmlns:dc="http://purl.org/dc/elements/1.1/" xmlns:cc="http://creativecommons.org/ns#" xmlns:rdf="http://www.w3.org/1999/02/22-rdf-syntax-ns#">
   <cc:Work>
    <dc:type rdf:resource="http://purl.org/dc/dcmitype/StillImage"/>
    <dc:date>2024-02-23T09:08:36.045630</dc:date>
    <dc:format>image/svg+xml</dc:format>
    <dc:creator>
     <cc:Agent>
      <dc:title>Matplotlib v3.8.3, https://matplotlib.org/</dc:title>
     </cc:Agent>
    </dc:creator>
   </cc:Work>
  </rdf:RDF>
 </metadata>
 <defs>
  <style type="text/css">*{stroke-linejoin: round; stroke-linecap: butt}</style>
 </defs>
 <g id="figure_1">
  <g id="patch_1">
   <path d="M 0 345.6 
L 460.8 345.6 
L 460.8 0 
L 0 0 
z
" style="fill: #ffffff"/>
  </g>
  <g id="axes_1">
   <g id="patch_2">
    <path d="M 61.188889 149.829274 
L 450 149.829274 
L 450 11.472365 
L 61.188889 11.472365 
z
" style="fill: #e5e5e5"/>
   </g>
   <g id="matplotlib.axis_1">
    <g id="xtick_1">
     <g id="line2d_1">
      <path d="M 118.135971 149.829274 
L 118.135971 11.472365 
" clip-path="url(#p0143dc84c3)" style="fill: none; stroke: #ffffff; stroke-width: 0.8; stroke-linecap: square"/>
     </g>
    </g>
    <g id="xtick_2">
     <g id="line2d_2">
      <path d="M 177.046746 149.829274 
L 177.046746 11.472365 
" clip-path="url(#p0143dc84c3)" style="fill: none; stroke: #ffffff; stroke-width: 0.8; stroke-linecap: square"/>
     </g>
    </g>
    <g id="xtick_3">
     <g id="line2d_3">
      <path d="M 235.95752 149.829274 
L 235.95752 11.472365 
" clip-path="url(#p0143dc84c3)" style="fill: none; stroke: #ffffff; stroke-width: 0.8; stroke-linecap: square"/>
     </g>
    </g>
    <g id="xtick_4">
     <g id="line2d_4">
      <path d="M 294.868294 149.829274 
L 294.868294 11.472365 
" clip-path="url(#p0143dc84c3)" style="fill: none; stroke: #ffffff; stroke-width: 0.8; stroke-linecap: square"/>
     </g>
    </g>
    <g id="xtick_5">
     <g id="line2d_5">
      <path d="M 353.779069 149.829274 
L 353.779069 11.472365 
" clip-path="url(#p0143dc84c3)" style="fill: none; stroke: #ffffff; stroke-width: 0.8; stroke-linecap: square"/>
     </g>
    </g>
    <g id="xtick_6">
     <g id="line2d_6">
      <path d="M 412.689843 149.829274 
L 412.689843 11.472365 
" clip-path="url(#p0143dc84c3)" style="fill: none; stroke: #ffffff; stroke-width: 0.8; stroke-linecap: square"/>
     </g>
    </g>
   </g>
   <g id="matplotlib.axis_2">
    <g id="ytick_1">
     <g id="line2d_7">
      <path d="M 61.188889 143.540323 
L 450 143.540323 
" clip-path="url(#p0143dc84c3)" style="fill: none; stroke: #ffffff; stroke-width: 0.8; stroke-linecap: square"/>
     </g>
     <g id="line2d_8">
      <defs>
       <path id="mb4e2b19b27" d="M 0 0 
L -3.5 0 
" style="stroke: #555555; stroke-width: 0.8"/>
      </defs>
      <g>
       <use xlink:href="#mb4e2b19b27" x="61.188889" y="143.540323" style="fill: #555555; stroke: #555555; stroke-width: 0.8"/>
      </g>
     </g>
     <g id="text_1">
      <!-- 0.0 -->
      <g style="fill: #555555" transform="translate(38.285764 147.339542) scale(0.1 -0.1)">
       <defs>
        <path id="DejaVuSans-30" d="M 2034 4250 
Q 1547 4250 1301 3770 
Q 1056 3291 1056 2328 
Q 1056 1369 1301 889 
Q 1547 409 2034 409 
Q 2525 409 2770 889 
Q 3016 1369 3016 2328 
Q 3016 3291 2770 3770 
Q 2525 4250 2034 4250 
z
M 2034 4750 
Q 2819 4750 3233 4129 
Q 3647 3509 3647 2328 
Q 3647 1150 3233 529 
Q 2819 -91 2034 -91 
Q 1250 -91 836 529 
Q 422 1150 422 2328 
Q 422 3509 836 4129 
Q 1250 4750 2034 4750 
z
" transform="scale(0.015625)"/>
        <path id="DejaVuSans-2e" d="M 684 794 
L 1344 794 
L 1344 0 
L 684 0 
L 684 794 
z
" transform="scale(0.015625)"/>
       </defs>
       <use xlink:href="#DejaVuSans-30"/>
       <use xlink:href="#DejaVuSans-2e" x="63.623047"/>
       <use xlink:href="#DejaVuSans-30" x="95.410156"/>
      </g>
     </g>
    </g>
    <g id="ytick_2">
     <g id="line2d_9">
      <path d="M 61.188889 111.463452 
L 450 111.463452 
" clip-path="url(#p0143dc84c3)" style="fill: none; stroke: #ffffff; stroke-width: 0.8; stroke-linecap: square"/>
     </g>
     <g id="line2d_10">
      <g>
       <use xlink:href="#mb4e2b19b27" x="61.188889" y="111.463452" style="fill: #555555; stroke: #555555; stroke-width: 0.8"/>
      </g>
     </g>
     <g id="text_2">
      <!-- 0.5 -->
      <g style="fill: #555555" transform="translate(38.285764 115.262671) scale(0.1 -0.1)">
       <defs>
        <path id="DejaVuSans-35" d="M 691 4666 
L 3169 4666 
L 3169 4134 
L 1269 4134 
L 1269 2991 
Q 1406 3038 1543 3061 
Q 1681 3084 1819 3084 
Q 2600 3084 3056 2656 
Q 3513 2228 3513 1497 
Q 3513 744 3044 326 
Q 2575 -91 1722 -91 
Q 1428 -91 1123 -41 
Q 819 9 494 109 
L 494 744 
Q 775 591 1075 516 
Q 1375 441 1709 441 
Q 2250 441 2565 725 
Q 2881 1009 2881 1497 
Q 2881 1984 2565 2268 
Q 2250 2553 1709 2553 
Q 1456 2553 1204 2497 
Q 953 2441 691 2322 
L 691 4666 
z
" transform="scale(0.015625)"/>
       </defs>
       <use xlink:href="#DejaVuSans-30"/>
       <use xlink:href="#DejaVuSans-2e" x="63.623047"/>
       <use xlink:href="#DejaVuSans-35" x="95.410156"/>
      </g>
     </g>
    </g>
    <g id="ytick_3">
     <g id="line2d_11">
      <path d="M 61.188889 79.386581 
L 450 79.386581 
" clip-path="url(#p0143dc84c3)" style="fill: none; stroke: #ffffff; stroke-width: 0.8; stroke-linecap: square"/>
     </g>
     <g id="line2d_12">
      <g>
       <use xlink:href="#mb4e2b19b27" x="61.188889" y="79.386581" style="fill: #555555; stroke: #555555; stroke-width: 0.8"/>
      </g>
     </g>
     <g id="text_3">
      <!-- 1.0 -->
      <g style="fill: #555555" transform="translate(38.285764 83.1858) scale(0.1 -0.1)">
       <defs>
        <path id="DejaVuSans-31" d="M 794 531 
L 1825 531 
L 1825 4091 
L 703 3866 
L 703 4441 
L 1819 4666 
L 2450 4666 
L 2450 531 
L 3481 531 
L 3481 0 
L 794 0 
L 794 531 
z
" transform="scale(0.015625)"/>
       </defs>
       <use xlink:href="#DejaVuSans-31"/>
       <use xlink:href="#DejaVuSans-2e" x="63.623047"/>
       <use xlink:href="#DejaVuSans-30" x="95.410156"/>
      </g>
     </g>
    </g>
    <g id="ytick_4">
     <g id="line2d_13">
      <path d="M 61.188889 47.309711 
L 450 47.309711 
" clip-path="url(#p0143dc84c3)" style="fill: none; stroke: #ffffff; stroke-width: 0.8; stroke-linecap: square"/>
     </g>
     <g id="line2d_14">
      <g>
       <use xlink:href="#mb4e2b19b27" x="61.188889" y="47.309711" style="fill: #555555; stroke: #555555; stroke-width: 0.8"/>
      </g>
     </g>
     <g id="text_4">
      <!-- 1.5 -->
      <g style="fill: #555555" transform="translate(38.285764 51.108929) scale(0.1 -0.1)">
       <use xlink:href="#DejaVuSans-31"/>
       <use xlink:href="#DejaVuSans-2e" x="63.623047"/>
       <use xlink:href="#DejaVuSans-35" x="95.410156"/>
      </g>
     </g>
    </g>
    <g id="ytick_5">
     <g id="line2d_15">
      <path d="M 61.188889 15.23284 
L 450 15.23284 
" clip-path="url(#p0143dc84c3)" style="fill: none; stroke: #ffffff; stroke-width: 0.8; stroke-linecap: square"/>
     </g>
     <g id="line2d_16">
      <g>
       <use xlink:href="#mb4e2b19b27" x="61.188889" y="15.23284" style="fill: #555555; stroke: #555555; stroke-width: 0.8"/>
      </g>
     </g>
     <g id="text_5">
      <!-- 2.0 -->
      <g style="fill: #555555" transform="translate(38.285764 19.032058) scale(0.1 -0.1)">
       <defs>
        <path id="DejaVuSans-32" d="M 1228 531 
L 3431 531 
L 3431 0 
L 469 0 
L 469 531 
Q 828 903 1448 1529 
Q 2069 2156 2228 2338 
Q 2531 2678 2651 2914 
Q 2772 3150 2772 3378 
Q 2772 3750 2511 3984 
Q 2250 4219 1831 4219 
Q 1534 4219 1204 4116 
Q 875 4013 500 3803 
L 500 4441 
Q 881 4594 1212 4672 
Q 1544 4750 1819 4750 
Q 2544 4750 2975 4387 
Q 3406 4025 3406 3419 
Q 3406 3131 3298 2873 
Q 3191 2616 2906 2266 
Q 2828 2175 2409 1742 
Q 1991 1309 1228 531 
z
" transform="scale(0.015625)"/>
       </defs>
       <use xlink:href="#DejaVuSans-32"/>
       <use xlink:href="#DejaVuSans-2e" x="63.623047"/>
       <use xlink:href="#DejaVuSans-30" x="95.410156"/>
      </g>
     </g>
    </g>
   </g>
   <g id="line2d_17">
    <path d="M 78.862122 143.540323 
L 118.843608 143.540323 
L 119.197427 17.761316 
L 120.6127 36.994583 
L 122.027974 53.28683 
L 123.443248 67.087778 
L 124.858522 78.778379 
L 126.273796 88.681334 
L 127.68907 97.069996 
L 128.042888 98.958512 
L 128.396707 58.000236 
L 129.811981 71.080442 
L 131.227254 82.160512 
L 132.642528 91.546294 
L 132.996347 68.718771 
L 134.411621 80.159972 
L 135.473076 87.577375 
L 135.826894 71.955442 
L 137.242168 82.901713 
L 137.595987 85.366016 
L 137.949805 73.777634 
L 139.365079 84.445268 
L 139.718898 75.508146 
L 140.780353 83.469952 
L 141.134171 76.306302 
L 141.841808 81.659932 
L 142.195627 75.693897 
L 142.903264 81.09629 
L 143.257082 76.145669 
L 143.964719 81.51209 
L 144.318538 77.420926 
L 144.672356 80.107964 
L 145.026175 76.60035 
L 145.733811 81.930566 
L 146.08763 79.061064 
L 146.441448 81.681448 
L 147.149085 77.118197 
L 147.502904 79.817537 
L 147.856722 78.040525 
L 148.210541 80.702382 
L 148.918178 77.994719 
L 149.271996 80.658438 
L 149.979633 78.856721 
L 150.333451 78.219361 
L 150.68727 80.873951 
L 151.394907 80.096229 
L 152.102544 79.839693 
L 152.810181 80.026274 
L 153.163999 80.26386 
L 153.517818 78.338699 
L 154.225455 79.391887 
L 154.579273 80.013617 
L 154.933092 78.786225 
L 155.28691 79.590644 
L 155.640728 78.683745 
L 155.994547 79.637818 
L 156.348365 79.008154 
L 156.702184 80.082947 
L 157.409821 79.437858 
L 158.117458 79.297849 
L 158.825095 79.586573 
L 159.178913 79.870328 
L 159.532732 79.126051 
L 159.88655 79.612879 
L 160.240368 79.144363 
L 160.594187 79.800125 
L 161.301824 79.460343 
L 162.009461 79.578813 
L 162.363279 78.990511 
L 163.070916 79.729671 
L 163.778553 79.410285 
L 164.48619 79.546349 
L 164.840009 79.166753 
L 165.193827 79.495528 
L 165.901464 79.332253 
L 166.609101 79.601052 
L 167.316738 79.342514 
L 168.378193 79.376348 
L 169.439649 79.238789 
L 169.793467 79.517796 
L 170.147285 79.240523 
L 170.501104 79.398421 
L 171.916378 79.327697 
L 172.270196 79.443193 
L 174.393107 79.373389 
L 181.115658 79.361518 
L 181.469476 79.42545 
L 182.177113 79.37908 
L 184.653843 79.379117 
L 186.069116 79.398288 
L 201.28331 79.387759 
L 233.480791 79.386533 
L 383.146001 79.286087 
L 393.052918 79.064741 
L 399.067832 78.732798 
L 403.667472 78.259973 
L 407.205657 77.670428 
L 410.036204 76.978189 
L 412.512934 76.13961 
L 414.635844 75.182515 
L 416.404937 74.162005 
L 418.174029 72.878543 
L 419.589303 71.61217 
L 421.004577 70.078687 
L 422.419851 68.213023 
L 423.835125 65.930535 
L 425.250398 63.119508 
L 426.311854 60.576096 
L 427.373309 57.56975 
L 428.434765 53.995163 
L 429.49622 49.716128 
L 430.557675 44.55407 
L 431.619131 38.271379 
L 432.326768 33.306114 
L 432.326768 33.306114 
" clip-path="url(#p0143dc84c3)" style="fill: none; stroke: #e24a33; stroke-width: 1.5; stroke-linecap: square"/>
   </g>
   <g id="line2d_18">
    <path d="M 78.862122 79.386581 
L 383.853638 79.277383 
L 393.760555 79.036795 
L 399.775469 78.675819 
L 404.021291 78.21167 
L 407.559475 77.59639 
L 410.390023 76.873537 
L 412.866752 75.997303 
L 414.989663 74.996479 
L 416.758755 73.928471 
L 418.527848 72.584013 
L 419.943121 71.256103 
L 421.358395 69.646337 
L 422.773669 67.68531 
L 424.188943 65.282426 
L 425.604217 62.317652 
L 426.665672 59.630082 
L 427.727128 56.447357 
L 428.788583 52.654903 
L 429.850038 48.103879 
L 430.911494 42.598208 
L 431.972949 35.875618 
L 432.326768 33.306114 
L 432.326768 33.306114 
" clip-path="url(#p0143dc84c3)" style="fill: none; stroke-dasharray: 5.55,2.4; stroke-dashoffset: 0; stroke: #348abd; stroke-width: 1.5"/>
   </g>
   <g id="patch_3">
    <path d="M 61.188889 149.829274 
L 61.188889 11.472365 
" style="fill: none; stroke: #ffffff; stroke-linejoin: miter; stroke-linecap: square"/>
   </g>
   <g id="patch_4">
    <path d="M 450 149.829274 
L 450 11.472365 
" style="fill: none; stroke: #ffffff; stroke-linejoin: miter; stroke-linecap: square"/>
   </g>
   <g id="patch_5">
    <path d="M 61.188889 149.829274 
L 450 149.829274 
" style="fill: none; stroke: #ffffff; stroke-linejoin: miter; stroke-linecap: square"/>
   </g>
   <g id="patch_6">
    <path d="M 61.188889 11.472365 
L 450 11.472365 
" style="fill: none; stroke: #ffffff; stroke-linejoin: miter; stroke-linecap: square"/>
   </g>
  </g>
  <g id="axes_2">
   <g id="patch_7">
    <path d="M 61.188889 299.608 
L 450 299.608 
L 450 161.251092 
L 61.188889 161.251092 
z
" style="fill: #e5e5e5"/>
   </g>
   <g id="matplotlib.axis_3">
    <g id="xtick_7">
     <g id="line2d_19">
      <path d="M 118.135971 299.608 
L 118.135971 161.251092 
" clip-path="url(#p7463caf6a8)" style="fill: none; stroke: #ffffff; stroke-width: 0.8; stroke-linecap: square"/>
     </g>
     <g id="line2d_20">
      <defs>
       <path id="m31e35ffa5b" d="M 0 0 
L 0 3.5 
" style="stroke: #555555; stroke-width: 0.8"/>
      </defs>
      <g>
       <use xlink:href="#m31e35ffa5b" x="118.135971" y="299.608" style="fill: #555555; stroke: #555555; stroke-width: 0.8"/>
      </g>
     </g>
     <g id="text_6">
      <!-- $\mathdefault{10^{-16}}$ -->
      <g style="fill: #555555" transform="translate(104.185971 314.206437) scale(0.1 -0.1)">
       <defs>
        <path id="DejaVuSans-2212" d="M 678 2272 
L 4684 2272 
L 4684 1741 
L 678 1741 
L 678 2272 
z
" transform="scale(0.015625)"/>
        <path id="DejaVuSans-36" d="M 2113 2584 
Q 1688 2584 1439 2293 
Q 1191 2003 1191 1497 
Q 1191 994 1439 701 
Q 1688 409 2113 409 
Q 2538 409 2786 701 
Q 3034 994 3034 1497 
Q 3034 2003 2786 2293 
Q 2538 2584 2113 2584 
z
M 3366 4563 
L 3366 3988 
Q 3128 4100 2886 4159 
Q 2644 4219 2406 4219 
Q 1781 4219 1451 3797 
Q 1122 3375 1075 2522 
Q 1259 2794 1537 2939 
Q 1816 3084 2150 3084 
Q 2853 3084 3261 2657 
Q 3669 2231 3669 1497 
Q 3669 778 3244 343 
Q 2819 -91 2113 -91 
Q 1303 -91 875 529 
Q 447 1150 447 2328 
Q 447 3434 972 4092 
Q 1497 4750 2381 4750 
Q 2619 4750 2861 4703 
Q 3103 4656 3366 4563 
z
" transform="scale(0.015625)"/>
       </defs>
       <use xlink:href="#DejaVuSans-31" transform="translate(0 0.765625)"/>
       <use xlink:href="#DejaVuSans-30" transform="translate(63.623047 0.765625)"/>
       <use xlink:href="#DejaVuSans-2212" transform="translate(128.203125 39.046875) scale(0.7)"/>
       <use xlink:href="#DejaVuSans-31" transform="translate(186.855469 39.046875) scale(0.7)"/>
       <use xlink:href="#DejaVuSans-36" transform="translate(231.391602 39.046875) scale(0.7)"/>
      </g>
     </g>
    </g>
    <g id="xtick_8">
     <g id="line2d_21">
      <path d="M 177.046746 299.608 
L 177.046746 161.251092 
" clip-path="url(#p7463caf6a8)" style="fill: none; stroke: #ffffff; stroke-width: 0.8; stroke-linecap: square"/>
     </g>
     <g id="line2d_22">
      <g>
       <use xlink:href="#m31e35ffa5b" x="177.046746" y="299.608" style="fill: #555555; stroke: #555555; stroke-width: 0.8"/>
      </g>
     </g>
     <g id="text_7">
      <!-- $\mathdefault{10^{-13}}$ -->
      <g style="fill: #555555" transform="translate(163.096746 314.206437) scale(0.1 -0.1)">
       <defs>
        <path id="DejaVuSans-33" d="M 2597 2516 
Q 3050 2419 3304 2112 
Q 3559 1806 3559 1356 
Q 3559 666 3084 287 
Q 2609 -91 1734 -91 
Q 1441 -91 1130 -33 
Q 819 25 488 141 
L 488 750 
Q 750 597 1062 519 
Q 1375 441 1716 441 
Q 2309 441 2620 675 
Q 2931 909 2931 1356 
Q 2931 1769 2642 2001 
Q 2353 2234 1838 2234 
L 1294 2234 
L 1294 2753 
L 1863 2753 
Q 2328 2753 2575 2939 
Q 2822 3125 2822 3475 
Q 2822 3834 2567 4026 
Q 2313 4219 1838 4219 
Q 1578 4219 1281 4162 
Q 984 4106 628 3988 
L 628 4550 
Q 988 4650 1302 4700 
Q 1616 4750 1894 4750 
Q 2613 4750 3031 4423 
Q 3450 4097 3450 3541 
Q 3450 3153 3228 2886 
Q 3006 2619 2597 2516 
z
" transform="scale(0.015625)"/>
       </defs>
       <use xlink:href="#DejaVuSans-31" transform="translate(0 0.765625)"/>
       <use xlink:href="#DejaVuSans-30" transform="translate(63.623047 0.765625)"/>
       <use xlink:href="#DejaVuSans-2212" transform="translate(128.203125 39.046875) scale(0.7)"/>
       <use xlink:href="#DejaVuSans-31" transform="translate(186.855469 39.046875) scale(0.7)"/>
       <use xlink:href="#DejaVuSans-33" transform="translate(231.391602 39.046875) scale(0.7)"/>
      </g>
     </g>
    </g>
    <g id="xtick_9">
     <g id="line2d_23">
      <path d="M 235.95752 299.608 
L 235.95752 161.251092 
" clip-path="url(#p7463caf6a8)" style="fill: none; stroke: #ffffff; stroke-width: 0.8; stroke-linecap: square"/>
     </g>
     <g id="line2d_24">
      <g>
       <use xlink:href="#m31e35ffa5b" x="235.95752" y="299.608" style="fill: #555555; stroke: #555555; stroke-width: 0.8"/>
      </g>
     </g>
     <g id="text_8">
      <!-- $\mathdefault{10^{-10}}$ -->
      <g style="fill: #555555" transform="translate(222.00752 314.206437) scale(0.1 -0.1)">
       <use xlink:href="#DejaVuSans-31" transform="translate(0 0.765625)"/>
       <use xlink:href="#DejaVuSans-30" transform="translate(63.623047 0.765625)"/>
       <use xlink:href="#DejaVuSans-2212" transform="translate(128.203125 39.046875) scale(0.7)"/>
       <use xlink:href="#DejaVuSans-31" transform="translate(186.855469 39.046875) scale(0.7)"/>
       <use xlink:href="#DejaVuSans-30" transform="translate(231.391602 39.046875) scale(0.7)"/>
      </g>
     </g>
    </g>
    <g id="xtick_10">
     <g id="line2d_25">
      <path d="M 294.868294 299.608 
L 294.868294 161.251092 
" clip-path="url(#p7463caf6a8)" style="fill: none; stroke: #ffffff; stroke-width: 0.8; stroke-linecap: square"/>
     </g>
     <g id="line2d_26">
      <g>
       <use xlink:href="#m31e35ffa5b" x="294.868294" y="299.608" style="fill: #555555; stroke: #555555; stroke-width: 0.8"/>
      </g>
     </g>
     <g id="text_9">
      <!-- $\mathdefault{10^{-7}}$ -->
      <g style="fill: #555555" transform="translate(283.118294 314.206437) scale(0.1 -0.1)">
       <defs>
        <path id="DejaVuSans-37" d="M 525 4666 
L 3525 4666 
L 3525 4397 
L 1831 0 
L 1172 0 
L 2766 4134 
L 525 4134 
L 525 4666 
z
" transform="scale(0.015625)"/>
       </defs>
       <use xlink:href="#DejaVuSans-31" transform="translate(0 0.684375)"/>
       <use xlink:href="#DejaVuSans-30" transform="translate(63.623047 0.684375)"/>
       <use xlink:href="#DejaVuSans-2212" transform="translate(128.203125 38.965625) scale(0.7)"/>
       <use xlink:href="#DejaVuSans-37" transform="translate(186.855469 38.965625) scale(0.7)"/>
      </g>
     </g>
    </g>
    <g id="xtick_11">
     <g id="line2d_27">
      <path d="M 353.779069 299.608 
L 353.779069 161.251092 
" clip-path="url(#p7463caf6a8)" style="fill: none; stroke: #ffffff; stroke-width: 0.8; stroke-linecap: square"/>
     </g>
     <g id="line2d_28">
      <g>
       <use xlink:href="#m31e35ffa5b" x="353.779069" y="299.608" style="fill: #555555; stroke: #555555; stroke-width: 0.8"/>
      </g>
     </g>
     <g id="text_10">
      <!-- $\mathdefault{10^{-4}}$ -->
      <g style="fill: #555555" transform="translate(342.029069 314.206437) scale(0.1 -0.1)">
       <defs>
        <path id="DejaVuSans-34" d="M 2419 4116 
L 825 1625 
L 2419 1625 
L 2419 4116 
z
M 2253 4666 
L 3047 4666 
L 3047 1625 
L 3713 1625 
L 3713 1100 
L 3047 1100 
L 3047 0 
L 2419 0 
L 2419 1100 
L 313 1100 
L 313 1709 
L 2253 4666 
z
" transform="scale(0.015625)"/>
       </defs>
       <use xlink:href="#DejaVuSans-31" transform="translate(0 0.684375)"/>
       <use xlink:href="#DejaVuSans-30" transform="translate(63.623047 0.684375)"/>
       <use xlink:href="#DejaVuSans-2212" transform="translate(128.203125 38.965625) scale(0.7)"/>
       <use xlink:href="#DejaVuSans-34" transform="translate(186.855469 38.965625) scale(0.7)"/>
      </g>
     </g>
    </g>
    <g id="xtick_12">
     <g id="line2d_29">
      <path d="M 412.689843 299.608 
L 412.689843 161.251092 
" clip-path="url(#p7463caf6a8)" style="fill: none; stroke: #ffffff; stroke-width: 0.8; stroke-linecap: square"/>
     </g>
     <g id="line2d_30">
      <g>
       <use xlink:href="#m31e35ffa5b" x="412.689843" y="299.608" style="fill: #555555; stroke: #555555; stroke-width: 0.8"/>
      </g>
     </g>
     <g id="text_11">
      <!-- $\mathdefault{10^{-1}}$ -->
      <g style="fill: #555555" transform="translate(400.939843 314.206437) scale(0.1 -0.1)">
       <use xlink:href="#DejaVuSans-31" transform="translate(0 0.684375)"/>
       <use xlink:href="#DejaVuSans-30" transform="translate(63.623047 0.684375)"/>
       <use xlink:href="#DejaVuSans-2212" transform="translate(128.203125 38.965625) scale(0.7)"/>
       <use xlink:href="#DejaVuSans-31" transform="translate(186.855469 38.965625) scale(0.7)"/>
      </g>
     </g>
    </g>
    <g id="text_12">
     <!-- $x$ -->
     <g style="fill: #555555" transform="translate(251.994445 329.40425) scale(0.12 -0.12)">
      <defs>
       <path id="DejaVuSans-Oblique-78" d="M 3841 3500 
L 2234 1784 
L 3219 0 
L 2559 0 
L 1819 1388 
L 531 0 
L -166 0 
L 1556 1844 
L 641 3500 
L 1300 3500 
L 1972 2234 
L 3144 3500 
L 3841 3500 
z
" transform="scale(0.015625)"/>
      </defs>
      <use xlink:href="#DejaVuSans-Oblique-78" transform="translate(0 0.3125)"/>
     </g>
    </g>
   </g>
   <g id="matplotlib.axis_4">
    <g id="ytick_6">
     <g id="line2d_31">
      <path d="M 61.188889 278.572988 
L 450 278.572988 
" clip-path="url(#p7463caf6a8)" style="fill: none; stroke: #ffffff; stroke-width: 0.8; stroke-linecap: square"/>
     </g>
     <g id="line2d_32">
      <g>
       <use xlink:href="#mb4e2b19b27" x="61.188889" y="278.572988" style="fill: #555555; stroke: #555555; stroke-width: 0.8"/>
      </g>
     </g>
     <g id="text_13">
      <!-- $\mathdefault{10^{-14}}$ -->
      <g style="fill: #555555" transform="translate(26.288889 282.372207) scale(0.1 -0.1)">
       <use xlink:href="#DejaVuSans-31" transform="translate(0 0.684375)"/>
       <use xlink:href="#DejaVuSans-30" transform="translate(63.623047 0.684375)"/>
       <use xlink:href="#DejaVuSans-2212" transform="translate(128.203125 38.965625) scale(0.7)"/>
       <use xlink:href="#DejaVuSans-31" transform="translate(186.855469 38.965625) scale(0.7)"/>
       <use xlink:href="#DejaVuSans-34" transform="translate(231.391602 38.965625) scale(0.7)"/>
      </g>
     </g>
    </g>
    <g id="ytick_7">
     <g id="line2d_33">
      <path d="M 61.188889 254.780214 
L 450 254.780214 
" clip-path="url(#p7463caf6a8)" style="fill: none; stroke: #ffffff; stroke-width: 0.8; stroke-linecap: square"/>
     </g>
     <g id="line2d_34">
      <g>
       <use xlink:href="#mb4e2b19b27" x="61.188889" y="254.780214" style="fill: #555555; stroke: #555555; stroke-width: 0.8"/>
      </g>
     </g>
     <g id="text_14">
      <!-- $\mathdefault{10^{-11}}$ -->
      <g style="fill: #555555" transform="translate(26.288889 258.579433) scale(0.1 -0.1)">
       <use xlink:href="#DejaVuSans-31" transform="translate(0 0.684375)"/>
       <use xlink:href="#DejaVuSans-30" transform="translate(63.623047 0.684375)"/>
       <use xlink:href="#DejaVuSans-2212" transform="translate(128.203125 38.965625) scale(0.7)"/>
       <use xlink:href="#DejaVuSans-31" transform="translate(186.855469 38.965625) scale(0.7)"/>
       <use xlink:href="#DejaVuSans-31" transform="translate(231.391602 38.965625) scale(0.7)"/>
      </g>
     </g>
    </g>
    <g id="ytick_8">
     <g id="line2d_35">
      <path d="M 61.188889 230.98744 
L 450 230.98744 
" clip-path="url(#p7463caf6a8)" style="fill: none; stroke: #ffffff; stroke-width: 0.8; stroke-linecap: square"/>
     </g>
     <g id="line2d_36">
      <g>
       <use xlink:href="#mb4e2b19b27" x="61.188889" y="230.98744" style="fill: #555555; stroke: #555555; stroke-width: 0.8"/>
      </g>
     </g>
     <g id="text_15">
      <!-- $\mathdefault{10^{-8}}$ -->
      <g style="fill: #555555" transform="translate(30.688889 234.786659) scale(0.1 -0.1)">
       <defs>
        <path id="DejaVuSans-38" d="M 2034 2216 
Q 1584 2216 1326 1975 
Q 1069 1734 1069 1313 
Q 1069 891 1326 650 
Q 1584 409 2034 409 
Q 2484 409 2743 651 
Q 3003 894 3003 1313 
Q 3003 1734 2745 1975 
Q 2488 2216 2034 2216 
z
M 1403 2484 
Q 997 2584 770 2862 
Q 544 3141 544 3541 
Q 544 4100 942 4425 
Q 1341 4750 2034 4750 
Q 2731 4750 3128 4425 
Q 3525 4100 3525 3541 
Q 3525 3141 3298 2862 
Q 3072 2584 2669 2484 
Q 3125 2378 3379 2068 
Q 3634 1759 3634 1313 
Q 3634 634 3220 271 
Q 2806 -91 2034 -91 
Q 1263 -91 848 271 
Q 434 634 434 1313 
Q 434 1759 690 2068 
Q 947 2378 1403 2484 
z
M 1172 3481 
Q 1172 3119 1398 2916 
Q 1625 2713 2034 2713 
Q 2441 2713 2670 2916 
Q 2900 3119 2900 3481 
Q 2900 3844 2670 4047 
Q 2441 4250 2034 4250 
Q 1625 4250 1398 4047 
Q 1172 3844 1172 3481 
z
" transform="scale(0.015625)"/>
       </defs>
       <use xlink:href="#DejaVuSans-31" transform="translate(0 0.765625)"/>
       <use xlink:href="#DejaVuSans-30" transform="translate(63.623047 0.765625)"/>
       <use xlink:href="#DejaVuSans-2212" transform="translate(128.203125 39.046875) scale(0.7)"/>
       <use xlink:href="#DejaVuSans-38" transform="translate(186.855469 39.046875) scale(0.7)"/>
      </g>
     </g>
    </g>
    <g id="ytick_9">
     <g id="line2d_37">
      <path d="M 61.188889 207.194666 
L 450 207.194666 
" clip-path="url(#p7463caf6a8)" style="fill: none; stroke: #ffffff; stroke-width: 0.8; stroke-linecap: square"/>
     </g>
     <g id="line2d_38">
      <g>
       <use xlink:href="#mb4e2b19b27" x="61.188889" y="207.194666" style="fill: #555555; stroke: #555555; stroke-width: 0.8"/>
      </g>
     </g>
     <g id="text_16">
      <!-- $\mathdefault{10^{-5}}$ -->
      <g style="fill: #555555" transform="translate(30.688889 210.993885) scale(0.1 -0.1)">
       <use xlink:href="#DejaVuSans-31" transform="translate(0 0.684375)"/>
       <use xlink:href="#DejaVuSans-30" transform="translate(63.623047 0.684375)"/>
       <use xlink:href="#DejaVuSans-2212" transform="translate(128.203125 38.965625) scale(0.7)"/>
       <use xlink:href="#DejaVuSans-35" transform="translate(186.855469 38.965625) scale(0.7)"/>
      </g>
     </g>
    </g>
    <g id="ytick_10">
     <g id="line2d_39">
      <path d="M 61.188889 183.401892 
L 450 183.401892 
" clip-path="url(#p7463caf6a8)" style="fill: none; stroke: #ffffff; stroke-width: 0.8; stroke-linecap: square"/>
     </g>
     <g id="line2d_40">
      <g>
       <use xlink:href="#mb4e2b19b27" x="61.188889" y="183.401892" style="fill: #555555; stroke: #555555; stroke-width: 0.8"/>
      </g>
     </g>
     <g id="text_17">
      <!-- $\mathdefault{10^{-2}}$ -->
      <g style="fill: #555555" transform="translate(30.688889 187.20111) scale(0.1 -0.1)">
       <use xlink:href="#DejaVuSans-31" transform="translate(0 0.765625)"/>
       <use xlink:href="#DejaVuSans-30" transform="translate(63.623047 0.765625)"/>
       <use xlink:href="#DejaVuSans-2212" transform="translate(128.203125 39.046875) scale(0.7)"/>
       <use xlink:href="#DejaVuSans-32" transform="translate(186.855469 39.046875) scale(0.7)"/>
      </g>
     </g>
    </g>
    <g id="text_18">
     <!-- Relative error -->
     <g style="fill: #555555" transform="translate(19.793264 271.056108) rotate(-90) scale(0.12 -0.12)">
      <defs>
       <path id="DejaVuSans-52" d="M 2841 2188 
Q 3044 2119 3236 1894 
Q 3428 1669 3622 1275 
L 4263 0 
L 3584 0 
L 2988 1197 
Q 2756 1666 2539 1819 
Q 2322 1972 1947 1972 
L 1259 1972 
L 1259 0 
L 628 0 
L 628 4666 
L 2053 4666 
Q 2853 4666 3247 4331 
Q 3641 3997 3641 3322 
Q 3641 2881 3436 2590 
Q 3231 2300 2841 2188 
z
M 1259 4147 
L 1259 2491 
L 2053 2491 
Q 2509 2491 2742 2702 
Q 2975 2913 2975 3322 
Q 2975 3731 2742 3939 
Q 2509 4147 2053 4147 
L 1259 4147 
z
" transform="scale(0.015625)"/>
       <path id="DejaVuSans-65" d="M 3597 1894 
L 3597 1613 
L 953 1613 
Q 991 1019 1311 708 
Q 1631 397 2203 397 
Q 2534 397 2845 478 
Q 3156 559 3463 722 
L 3463 178 
Q 3153 47 2828 -22 
Q 2503 -91 2169 -91 
Q 1331 -91 842 396 
Q 353 884 353 1716 
Q 353 2575 817 3079 
Q 1281 3584 2069 3584 
Q 2775 3584 3186 3129 
Q 3597 2675 3597 1894 
z
M 3022 2063 
Q 3016 2534 2758 2815 
Q 2500 3097 2075 3097 
Q 1594 3097 1305 2825 
Q 1016 2553 972 2059 
L 3022 2063 
z
" transform="scale(0.015625)"/>
       <path id="DejaVuSans-6c" d="M 603 4863 
L 1178 4863 
L 1178 0 
L 603 0 
L 603 4863 
z
" transform="scale(0.015625)"/>
       <path id="DejaVuSans-61" d="M 2194 1759 
Q 1497 1759 1228 1600 
Q 959 1441 959 1056 
Q 959 750 1161 570 
Q 1363 391 1709 391 
Q 2188 391 2477 730 
Q 2766 1069 2766 1631 
L 2766 1759 
L 2194 1759 
z
M 3341 1997 
L 3341 0 
L 2766 0 
L 2766 531 
Q 2569 213 2275 61 
Q 1981 -91 1556 -91 
Q 1019 -91 701 211 
Q 384 513 384 1019 
Q 384 1609 779 1909 
Q 1175 2209 1959 2209 
L 2766 2209 
L 2766 2266 
Q 2766 2663 2505 2880 
Q 2244 3097 1772 3097 
Q 1472 3097 1187 3025 
Q 903 2953 641 2809 
L 641 3341 
Q 956 3463 1253 3523 
Q 1550 3584 1831 3584 
Q 2591 3584 2966 3190 
Q 3341 2797 3341 1997 
z
" transform="scale(0.015625)"/>
       <path id="DejaVuSans-74" d="M 1172 4494 
L 1172 3500 
L 2356 3500 
L 2356 3053 
L 1172 3053 
L 1172 1153 
Q 1172 725 1289 603 
Q 1406 481 1766 481 
L 2356 481 
L 2356 0 
L 1766 0 
Q 1100 0 847 248 
Q 594 497 594 1153 
L 594 3053 
L 172 3053 
L 172 3500 
L 594 3500 
L 594 4494 
L 1172 4494 
z
" transform="scale(0.015625)"/>
       <path id="DejaVuSans-69" d="M 603 3500 
L 1178 3500 
L 1178 0 
L 603 0 
L 603 3500 
z
M 603 4863 
L 1178 4863 
L 1178 4134 
L 603 4134 
L 603 4863 
z
" transform="scale(0.015625)"/>
       <path id="DejaVuSans-76" d="M 191 3500 
L 800 3500 
L 1894 563 
L 2988 3500 
L 3597 3500 
L 2284 0 
L 1503 0 
L 191 3500 
z
" transform="scale(0.015625)"/>
       <path id="DejaVuSans-20" transform="scale(0.015625)"/>
       <path id="DejaVuSans-72" d="M 2631 2963 
Q 2534 3019 2420 3045 
Q 2306 3072 2169 3072 
Q 1681 3072 1420 2755 
Q 1159 2438 1159 1844 
L 1159 0 
L 581 0 
L 581 3500 
L 1159 3500 
L 1159 2956 
Q 1341 3275 1631 3429 
Q 1922 3584 2338 3584 
Q 2397 3584 2469 3576 
Q 2541 3569 2628 3553 
L 2631 2963 
z
" transform="scale(0.015625)"/>
       <path id="DejaVuSans-6f" d="M 1959 3097 
Q 1497 3097 1228 2736 
Q 959 2375 959 1747 
Q 959 1119 1226 758 
Q 1494 397 1959 397 
Q 2419 397 2687 759 
Q 2956 1122 2956 1747 
Q 2956 2369 2687 2733 
Q 2419 3097 1959 3097 
z
M 1959 3584 
Q 2709 3584 3137 3096 
Q 3566 2609 3566 1747 
Q 3566 888 3137 398 
Q 2709 -91 1959 -91 
Q 1206 -91 779 398 
Q 353 888 353 1747 
Q 353 2609 779 3096 
Q 1206 3584 1959 3584 
z
" transform="scale(0.015625)"/>
      </defs>
      <use xlink:href="#DejaVuSans-52"/>
      <use xlink:href="#DejaVuSans-65" x="64.982422"/>
      <use xlink:href="#DejaVuSans-6c" x="126.505859"/>
      <use xlink:href="#DejaVuSans-61" x="154.289062"/>
      <use xlink:href="#DejaVuSans-74" x="215.568359"/>
      <use xlink:href="#DejaVuSans-69" x="254.777344"/>
      <use xlink:href="#DejaVuSans-76" x="282.560547"/>
      <use xlink:href="#DejaVuSans-65" x="341.740234"/>
      <use xlink:href="#DejaVuSans-20" x="403.263672"/>
      <use xlink:href="#DejaVuSans-65" x="435.050781"/>
      <use xlink:href="#DejaVuSans-72" x="496.574219"/>
      <use xlink:href="#DejaVuSans-72" x="535.9375"/>
      <use xlink:href="#DejaVuSans-6f" x="574.800781"/>
      <use xlink:href="#DejaVuSans-72" x="635.982422"/>
     </g>
    </g>
   </g>
   <g id="line2d_41">
    <path d="M 78.862122 167.540042 
L 118.843608 167.540042 
L 119.197427 167.678541 
L 120.6127 168.967118 
L 121.674156 170.166904 
L 122.735611 171.747065 
L 123.443248 173.229363 
L 123.797067 174.232313 
L 124.150885 175.582406 
L 124.504704 177.707288 
L 124.858522 183.585684 
L 125.212341 179.445013 
L 125.566159 176.655417 
L 125.919977 175.184929 
L 126.627614 173.453436 
L 127.335251 172.385126 
L 128.396707 171.323771 
L 129.104344 172.644477 
L 129.811981 174.581298 
L 130.165799 176.089114 
L 130.519617 178.667175 
L 130.873436 187.899285 
L 131.227254 178.358826 
L 131.581073 176.149433 
L 132.28871 173.956829 
L 132.642528 173.268539 
L 132.996347 173.719396 
L 133.350165 174.875046 
L 133.703984 176.535298 
L 134.411621 182.758085 
L 134.765439 177.709803 
L 135.119258 175.80634 
L 135.473076 174.629464 
L 135.826894 174.964709 
L 136.180713 176.675615 
L 136.534531 179.98294 
L 136.88835 182.062589 
L 137.242168 177.543162 
L 137.595987 175.713351 
L 137.949805 175.933662 
L 138.303624 178.358927 
L 138.657442 191.928342 
L 139.011261 178.641484 
L 139.365079 176.289313 
L 139.718898 177.204393 
L 140.072716 181.50218 
L 140.426534 180.388569 
L 140.780353 177.02704 
L 141.134171 177.998012 
L 141.48799 185.509234 
L 141.841808 179.044289 
L 142.195627 177.373435 
L 142.549445 182.102772 
L 143.257082 177.82292 
L 143.610901 184.246342 
L 143.964719 179.275901 
L 144.318538 179.545199 
L 144.672356 182.997862 
L 145.026175 178.343586 
L 145.379993 191.243127 
L 145.733811 178.656879 
L 146.08763 185.73872 
L 146.441448 179.011844 
L 146.795267 188.728258 
L 147.149085 179.051821 
L 147.502904 184.772273 
L 147.856722 180.849392 
L 148.210541 180.927695 
L 148.564359 188.419585 
L 148.918178 180.734132 
L 149.271996 181.044693 
L 149.625815 186.273418 
L 150.333451 181.340399 
L 150.68727 180.505543 
L 151.748725 184.1165 
L 152.102544 184.599595 
L 152.456362 184.291405 
L 153.517818 181.711887 
L 153.871636 183.900333 
L 154.225455 199.917913 
L 154.579273 183.480645 
L 154.933092 183.630403 
L 155.28691 187.347197 
L 155.640728 183.087571 
L 155.994547 186.630885 
L 156.348365 185.219974 
L 156.702184 183.119428 
L 157.056002 185.956904 
L 157.409821 192.104513 
L 157.763639 190.709971 
L 158.117458 190.21565 
L 158.471276 199.246271 
L 158.825095 187.416603 
L 159.178913 184.374255 
L 159.532732 186.505769 
L 159.88655 186.990968 
L 160.240368 186.756792 
L 160.594187 184.914327 
L 161.301824 190.852129 
L 161.655642 190.557499 
L 162.363279 185.063019 
L 162.717098 191.214487 
L 163.070916 185.557629 
L 163.424735 189.127279 
L 163.778553 194.762203 
L 164.132372 193.010468 
L 164.48619 188.190054 
L 164.840009 187.090871 
L 165.193827 189.508781 
L 165.547645 193.807371 
L 165.901464 191.905405 
L 166.255282 193.89418 
L 166.609101 187.175852 
L 166.962919 194.621752 
L 167.316738 192.626418 
L 167.670556 204.699395 
L 168.024375 188.548652 
L 168.378193 197.65532 
L 168.732012 192.464403 
L 169.08583 194.34617 
L 169.439649 188.458417 
L 169.793467 188.868209 
L 170.147285 188.499051 
L 170.501104 197.153269 
L 170.854922 193.801491 
L 171.208741 193.4254 
L 171.562559 191.074609 
L 171.916378 191.628022 
L 172.270196 191.763584 
L 172.624015 194.008599 
L 172.977833 189.461479 
L 173.331652 191.007348 
L 173.68547 190.950686 
L 174.039289 189.927327 
L 174.393107 196.780456 
L 174.746926 195.88575 
L 175.100744 190.352627 
L 175.454562 191.676195 
L 175.808381 190.53959 
L 176.162199 203.899706 
L 176.516018 194.138145 
L 176.869836 195.995726 
L 177.223655 194.196811 
L 177.931292 191.928342 
L 178.28511 193.755471 
L 178.638929 194.793704 
L 178.992747 194.824535 
L 179.346566 194.460464 
L 179.700384 194.361832 
L 180.054203 195.108245 
L 180.408021 199.101871 
L 180.761839 195.239454 
L 181.115658 194.570013 
L 181.469476 193.058768 
L 181.823295 192.918365 
L 182.177113 198.724845 
L 182.530932 195.188315 
L 182.88475 206.311137 
L 183.238569 197.400448 
L 183.592387 195.724334 
L 183.946206 194.77345 
L 184.653843 198.741929 
L 185.007661 194.779418 
L 185.361479 201.745312 
L 185.715298 194.600682 
L 186.069116 197.192036 
L 186.422935 198.118721 
L 186.776753 195.12903 
L 187.130572 198.677393 
L 187.48439 195.876861 
L 187.838209 197.316846 
L 188.192027 201.033404 
L 188.545846 196.522458 
L 188.899664 200.002137 
L 189.253483 196.374334 
L 189.607301 198.271617 
L 189.96112 196.405598 
L 190.314938 199.459232 
L 190.668756 197.311285 
L 191.376393 203.457277 
L 191.730212 197.187829 
L 192.08403 200.445351 
L 192.437849 197.68134 
L 192.791667 198.16197 
L 193.145486 199.667244 
L 193.499304 199.917913 
L 193.853123 198.405075 
L 194.206941 198.062025 
L 194.56076 201.793393 
L 195.268396 205.630174 
L 195.622215 198.787216 
L 195.976033 213.037024 
L 196.329852 199.337292 
L 197.037489 200.036063 
L 197.391307 201.833654 
L 197.745126 199.420522 
L 198.098944 200.025241 
L 198.452763 202.564462 
L 198.806581 200.057928 
L 199.1604 202.439394 
L 199.514218 201.769212 
L 199.868037 203.871634 
L 200.221855 202.063687 
L 200.575673 204.136416 
L 200.929492 202.618963 
L 201.28331 205.101824 
L 201.637129 202.671789 
L 201.990947 202.634175 
L 202.344766 203.973743 
L 202.698584 203.132217 
L 203.052403 201.555049 
L 203.406221 207.660828 
L 203.76004 203.698004 
L 204.467677 209.82623 
L 204.821495 203.962725 
L 205.175313 203.840927 
L 205.529132 211.158581 
L 205.88295 204.657862 
L 206.236769 204.374043 
L 206.590587 207.952635 
L 206.944406 204.699396 
L 207.298224 209.195404 
L 207.652043 204.099427 
L 208.005861 206.138584 
L 208.35968 204.541781 
L 208.713498 203.908697 
L 209.067317 205.129319 
L 209.421135 205.353257 
L 209.774954 208.520306 
L 210.128772 205.472503 
L 210.48259 205.502757 
L 210.836409 204.742017 
L 211.190227 205.995181 
L 211.544046 206.650345 
L 211.897864 206.483747 
L 212.251683 210.166261 
L 212.605501 216.587886 
L 212.95932 212.199352 
L 213.313138 206.403563 
L 213.666957 208.666942 
L 214.020775 209.621563 
L 214.374594 207.264728 
L 214.728412 209.723769 
L 215.08223 215.411923 
L 215.436049 213.972096 
L 215.789867 208.897122 
L 216.143686 207.598813 
L 216.497504 218.094903 
L 216.851323 209.089925 
L 217.205141 217.404607 
L 217.55896 210.04422 
L 217.912778 212.196104 
L 218.266597 207.83485 
L 218.620415 210.681484 
L 218.974234 208.000617 
L 219.328052 208.709007 
L 219.681871 230.873766 
L 220.035689 209.140106 
L 220.389507 209.680756 
L 220.743326 212.362628 
L 221.097144 211.296343 
L 221.450963 209.771428 
L 221.804781 218.827626 
L 222.1586 213.245388 
L 222.512418 222.412731 
L 222.866237 214.610653 
L 223.573874 209.844187 
L 224.281511 215.257752 
L 224.635329 213.503347 
L 224.989147 213.661516 
L 225.342966 211.93227 
L 225.696784 214.8695 
L 226.050603 214.210273 
L 226.404421 211.521862 
L 226.75824 218.303582 
L 227.112058 217.003917 
L 227.465877 219.545507 
L 227.819695 211.91429 
L 228.527332 212.547412 
L 228.881151 215.069922 
L 229.234969 219.705351 
L 229.588788 216.023387 
L 229.942606 215.266497 
L 230.296424 213.46714 
L 230.650243 216.684331 
L 231.004061 222.269307 
L 231.35788 213.995233 
L 231.711698 214.40173 
L 232.065517 215.0692 
L 232.419335 213.663651 
L 232.773154 214.608612 
L 233.126972 213.870865 
L 233.834609 217.959734 
L 234.188428 214.888873 
L 234.542246 228.311648 
L 234.896065 215.723225 
L 235.249883 217.008804 
L 235.603701 216.464386 
L 235.95752 223.711174 
L 236.311338 215.008396 
L 236.665157 218.14224 
L 237.018975 217.387145 
L 237.372794 216.283679 
L 237.726612 217.796271 
L 238.080431 220.264809 
L 238.434249 223.57409 
L 238.788068 217.398214 
L 239.141886 219.807971 
L 239.495705 218.607157 
L 239.849523 218.420481 
L 240.203341 226.390724 
L 240.55716 220.13986 
L 240.910978 223.504234 
L 241.264797 217.193811 
L 241.618615 219.01551 
L 241.972434 218.471701 
L 242.326252 221.782794 
L 242.680071 218.731401 
L 243.033889 217.640183 
L 243.387708 224.403334 
L 243.741526 220.646551 
L 244.095345 223.185757 
L 244.449163 220.261311 
L 244.802982 229.42746 
L 245.1568 219.836008 
L 245.510618 220.258418 
L 245.864437 219.113185 
L 246.218255 227.061166 
L 246.572074 221.394409 
L 246.925892 228.776436 
L 247.633529 221.837631 
L 247.987348 225.854111 
L 248.341166 228.146797 
L 248.694985 222.598669 
L 249.048803 222.79744 
L 249.402622 226.727103 
L 249.75644 225.274402 
L 250.110258 222.808091 
L 250.464077 229.167386 
L 250.817895 225.519955 
L 251.171714 229.58779 
L 251.525532 224.124735 
L 251.879351 226.965624 
L 252.233169 226.794531 
L 252.586988 225.119268 
L 252.940806 221.754285 
L 253.294625 241.318604 
L 253.648443 226.701459 
L 254.002262 228.916266 
L 254.35608 222.845294 
L 254.709899 223.80258 
L 255.063717 225.870199 
L 255.417535 225.302628 
L 255.771354 230.032593 
L 256.125172 224.065587 
L 256.478991 223.613725 
L 256.832809 225.886952 
L 257.186628 225.209089 
L 257.540446 235.876402 
L 257.894265 224.111734 
L 258.601902 225.92638 
L 258.95572 231.127543 
L 259.309539 224.822554 
L 260.017175 229.007433 
L 260.370994 234.891635 
L 260.724812 230.481593 
L 261.078631 231.812891 
L 261.432449 225.628106 
L 261.786268 229.792985 
L 262.140086 227.365851 
L 262.493905 226.88557 
L 262.847723 230.036882 
L 263.201542 226.602198 
L 263.55536 234.83783 
L 263.909179 230.500881 
L 264.262997 237.243274 
L 264.616816 228.947034 
L 264.970634 226.811598 
L 265.324452 227.72629 
L 266.032089 234.161743 
L 266.385908 229.041907 
L 266.739726 228.346028 
L 267.447363 238.4564 
L 267.801182 230.707123 
L 268.155 243.579515 
L 268.508819 228.940432 
L 268.862637 228.089395 
L 269.216456 229.957758 
L 269.570274 229.020377 
L 269.924092 228.948427 
L 270.277911 231.210205 
L 270.631729 229.651372 
L 270.985548 233.26843 
L 271.339366 234.796626 
L 271.693185 229.686263 
L 272.047003 235.551371 
L 272.400822 230.22388 
L 272.75464 236.943558 
L 273.108459 231.706166 
L 273.462277 231.141025 
L 273.816096 231.48321 
L 274.169914 231.009766 
L 274.877551 236.553002 
L 275.231369 230.634985 
L 275.585188 232.240419 
L 275.939006 232.086956 
L 276.292825 233.280195 
L 276.646643 233.010567 
L 277.000462 234.784896 
L 277.35428 232.629656 
L 278.061917 236.636427 
L 278.415736 234.021781 
L 278.769554 233.504462 
L 279.123373 236.69812 
L 279.831009 233.886526 
L 280.184828 233.790913 
L 280.538646 235.06176 
L 280.892465 233.415696 
L 281.246283 233.803675 
L 281.600102 235.566217 
L 281.95392 235.045623 
L 282.307739 234.132 
L 282.661557 248.571343 
L 283.369194 236.449332 
L 283.723013 237.391517 
L 284.076831 236.919157 
L 284.43065 237.645658 
L 284.784468 237.615268 
L 285.138286 241.82204 
L 285.845923 236.097303 
L 286.199742 246.90508 
L 286.55356 240.165136 
L 286.907379 236.794376 
L 287.261197 235.862314 
L 287.615016 235.935487 
L 287.968834 237.247004 
L 288.322653 238.088203 
L 288.676471 237.958545 
L 289.03029 236.960833 
L 289.384108 237.15918 
L 289.737927 236.537907 
L 290.091745 238.29473 
L 290.445563 241.578418 
L 290.799382 242.839202 
L 291.1532 246.085889 
L 291.507019 238.029392 
L 291.860837 238.298988 
L 292.214656 240.851057 
L 292.568474 241.32621 
L 292.922293 239.339115 
L 293.276111 238.118693 
L 293.62993 240.288438 
L 293.983748 241.511057 
L 294.337567 239.286114 
L 294.691385 239.557619 
L 295.045203 240.34327 
L 295.399022 255.422726 
L 295.75284 245.577899 
L 296.106659 244.977892 
L 296.460477 240.648842 
L 296.814296 242.807053 
L 297.168114 240.648789 
L 297.521933 243.740868 
L 297.875751 241.786248 
L 298.22957 240.87981 
L 298.583388 240.68924 
L 298.937207 241.641975 
L 299.291025 241.711429 
L 299.644844 243.610642 
L 299.998662 242.742786 
L 300.706299 251.625008 
L 301.060117 241.813318 
L 301.767754 245.450022 
L 302.121573 243.736262 
L 302.475391 251.864769 
L 302.82921 249.616126 
L 303.183028 242.43315 
L 303.536847 245.037028 
L 303.890665 242.797584 
L 304.244484 242.96267 
L 304.598302 253.131968 
L 304.95212 243.645952 
L 305.305939 244.249372 
L 305.659757 247.06743 
L 306.013576 243.241405 
L 306.367394 253.036617 
L 306.721213 245.13898 
L 307.075031 245.887795 
L 307.42885 244.265972 
L 307.782668 245.208949 
L 308.490305 251.620055 
L 308.844124 252.346014 
L 309.197942 247.916448 
L 309.551761 246.207253 
L 309.905579 245.950919 
L 310.259397 244.8728 
L 310.613216 246.348185 
L 310.967034 251.144722 
L 311.320853 246.636826 
L 311.674671 245.401402 
L 312.02849 249.482133 
L 312.382308 245.851952 
L 312.736127 247.970807 
L 313.089945 247.352681 
L 313.443764 246.203847 
L 313.797582 246.268159 
L 314.151401 249.752559 
L 314.505219 250.183542 
L 314.859037 246.791711 
L 315.212856 251.034012 
L 315.566674 250.521274 
L 315.920493 248.597482 
L 316.274311 251.227394 
L 316.62813 247.675604 
L 316.981948 248.57035 
L 317.335767 247.752846 
L 317.689585 249.001791 
L 318.043404 254.730784 
L 318.397222 253.310951 
L 319.104859 249.435054 
L 319.458678 248.933269 
L 320.166314 250.929501 
L 320.520133 250.781189 
L 320.873951 251.527805 
L 321.22777 251.810968 
L 321.581588 250.899874 
L 321.935407 255.273126 
L 322.289225 252.772956 
L 322.643044 253.542408 
L 322.996862 251.105741 
L 323.350681 255.596436 
L 323.704499 258.61811 
L 324.058318 258.448052 
L 324.412136 252.153807 
L 324.765954 250.75535 
L 325.119773 254.70817 
L 325.82741 256.204315 
L 326.181228 252.69264 
L 326.535047 257.436385 
L 326.888865 260.086982 
L 327.242684 253.598228 
L 327.596502 257.425653 
L 327.950321 258.697563 
L 328.304139 253.32732 
L 328.657958 253.958452 
L 329.011776 255.474831 
L 329.365595 252.981927 
L 329.719413 254.151237 
L 330.073231 256.686507 
L 330.42705 257.068169 
L 331.134687 253.479668 
L 331.488505 253.426602 
L 331.842324 254.745376 
L 332.196142 254.416021 
L 332.549961 266.977588 
L 332.903779 255.82807 
L 333.257598 255.480362 
L 333.611416 254.579831 
L 333.965235 260.240667 
L 334.319053 257.173035 
L 334.672871 256.152564 
L 335.02669 256.81305 
L 335.380508 255.274554 
L 336.088145 257.499484 
L 336.441964 255.483932 
L 336.795782 259.958408 
L 337.149601 258.640107 
L 337.503419 262.962232 
L 337.857238 256.219053 
L 338.211056 260.12722 
L 338.564875 259.972889 
L 339.272512 260.357618 
L 339.62633 256.934404 
L 339.980148 264.437858 
L 340.333967 258.043357 
L 340.687785 257.916722 
L 341.041604 264.727474 
L 341.395422 257.644673 
L 341.749241 258.774774 
L 342.103059 261.538099 
L 342.456878 259.916726 
L 342.810696 270.061826 
L 343.164515 262.830712 
L 343.518333 261.318909 
L 343.872152 261.525077 
L 344.22597 259.340794 
L 344.579789 261.744955 
L 344.933607 262.692589 
L 345.287425 260.049402 
L 345.641244 262.045397 
L 345.995062 262.338686 
L 346.348881 266.396167 
L 346.702699 264.003155 
L 347.056518 264.670311 
L 347.410336 272.912006 
L 347.764155 270.029703 
L 348.117973 263.00784 
L 348.471792 267.071305 
L 349.179429 261.284418 
L 349.533247 263.176115 
L 349.887065 262.286274 
L 350.240884 261.086069 
L 350.594702 275.825516 
L 350.948521 267.846709 
L 351.302339 263.129194 
L 351.656158 274.121621 
L 352.009976 263.988782 
L 352.363795 263.700839 
L 352.717613 262.476001 
L 353.071432 263.499903 
L 353.42525 263.749104 
L 354.132887 267.263802 
L 354.486706 262.690434 
L 355.194342 267.195675 
L 355.548161 265.016874 
L 355.901979 267.572679 
L 356.255798 265.101569 
L 356.609616 266.044824 
L 356.963435 270.769764 
L 357.317253 273.270161 
L 357.671072 267.756344 
L 358.02489 269.040622 
L 358.378709 276.594278 
L 358.732527 264.747024 
L 359.440164 267.554022 
L 359.793982 267.936403 
L 360.147801 266.380888 
L 360.501619 266.704085 
L 360.855438 267.232614 
L 361.209256 266.118239 
L 361.563075 268.672109 
L 361.916893 265.807798 
L 362.270712 267.840265 
L 362.62453 274.361109 
L 362.978349 272.329087 
L 363.332167 266.195293 
L 363.685986 266.503052 
L 364.039804 271.068343 
L 364.393623 269.368259 
L 364.747441 280.600913 
L 365.101259 278.500689 
L 365.455078 268.111937 
L 365.808896 268.246615 
L 366.162715 268.014353 
L 366.516533 270.268935 
L 366.870352 268.599874 
L 367.22417 268.998207 
L 367.577989 268.186283 
L 367.931807 269.553032 
L 368.285626 270.359484 
L 368.639444 276.227765 
L 368.993263 269.178569 
L 369.347081 270.55524 
L 369.700899 283.757436 
L 370.054718 271.49197 
L 370.408536 270.08243 
L 370.762355 270.235294 
L 371.116173 271.621738 
L 371.469992 273.91899 
L 371.82381 270.201659 
L 372.177629 274.339674 
L 372.885266 270.867709 
L 373.239084 270.445806 
L 373.946721 275.792957 
L 374.30054 272.64383 
L 374.654358 279.160093 
L 375.008176 273.003859 
L 375.361995 275.346171 
L 375.715813 272.256761 
L 376.069632 272.97392 
L 376.42345 272.11342 
L 376.777269 277.056467 
L 377.131087 272.699693 
L 377.484906 272.798424 
L 377.838724 283.759215 
L 378.546361 274.978266 
L 378.90018 272.813247 
L 379.253998 274.083152 
L 379.607816 273.747477 
L 379.961635 274.525638 
L 380.315453 274.478932 
L 380.669272 277.057945 
L 381.02309 277.476126 
L 381.376909 274.646332 
L 381.730727 287.9078 
L 382.084546 275.378849 
L 382.438364 276.472144 
L 382.792183 278.082925 
L 383.146001 275.349398 
L 383.49982 274.411564 
L 383.853638 275.062669 
L 384.207457 274.697263 
L 384.915093 276.194931 
L 385.268912 281.375791 
L 385.62273 283.435248 
L 385.976549 277.01257 
L 386.330367 279.757848 
L 386.684186 275.833561 
L 387.038004 279.352839 
L 387.391823 281.377747 
L 387.745641 276.825524 
L 388.09946 277.832138 
L 388.453278 277.894608 
L 388.807097 284.535381 
L 389.160915 279.260874 
L 389.514733 276.87389 
L 389.868552 286.15563 
L 390.576189 277.714521 
L 390.930007 280.102513 
L 391.283826 283.770327 
L 391.637644 279.1727 
L 391.991463 280.902703 
L 392.345281 281.561411 
L 392.6991 286.160303 
L 393.052918 278.230079 
L 393.406737 281.218792 
L 393.760555 280.483928 
L 394.114374 286.931877 
L 394.468192 279.770366 
L 394.82201 286.164982 
L 395.175829 282.874759 
L 395.529647 284.547959 
L 395.883466 279.465388 
L 396.237284 280.234993 
L 396.591103 289.32591 
L 396.944921 283.455257 
L 397.29874 281.229197 
L 397.652558 280.494775 
L 398.006377 286.174598 
L 398.360195 280.919624 
L 398.714014 291.720748 
L 399.067832 284.559831 
L 399.42165 281.23723 
L 399.775469 281.583498 
L 400.129287 281.240386 
L 400.483106 287.944474 
L 400.836924 284.162212 
L 401.190743 286.188584 
L 401.544561 282.406474 
L 401.89838 282.901348 
L 402.252198 282.903416 
L 402.606017 291.740173 
L 402.959835 285.570962 
L 403.313654 283.185859 
L 403.316525 346.6 
M 404.018527 346.6 
L 404.021291 285.578297 
L 404.728927 285.583722 
L 405.082746 283.199164 
L 405.436564 287.977067 
L 405.790383 286.22074 
L 406.144201 283.836567 
L 406.49802 283.83998 
L 406.851838 287.990451 
L 407.205657 289.390728 
L 407.559475 287.998031 
L 407.913294 288.002066 
L 408.267112 285.087877 
L 408.620931 285.092264 
L 408.974749 289.411802 
L 409.328568 285.10161 
L 409.682386 286.265516 
L 410.390023 291.819594 
L 410.743841 287.050345 
L 411.09766 286.287644 
L 411.805297 286.300185 
L 411.808028 346.6 
M 412.510238 346.6 
L 412.512934 287.082413 
L 412.866752 291.86457 
L 413.220571 287.097255 
L 413.574389 291.880052 
L 413.928208 289.500851 
L 414.282026 291.896898 
L 414.989663 291.915233 
L 415.343481 289.537553 
L 415.6973 288.151175 
L 416.051118 291.945819 
L 416.404937 289.569466 
L 416.758755 291.968487 
L 416.761231 346.6 
M 417.817629 346.6 
L 417.820211 289.618875 
L 418.174029 292.020049 
L 418.176503 346.6 
M 418.879086 346.6 
L 418.881666 289.661883 
L 419.235485 292.064937 
L 419.237956 346.6 
M 419.940544 346.6 
L 419.943121 289.710793 
L 420.650758 289.747088 
L 421.004577 292.153891 
L 422.066032 292.217252 
L 422.068497 346.6 
M 422.771206 346.6 
L 422.773669 292.264319 
L 422.776132 346.6 
M 423.478846 346.6 
L 423.481306 292.315676 
L 423.835125 292.34309 
L 423.837584 346.6 
M 424.540305 346.6 
L 424.542761 292.401666 
L 424.545218 346.6 
M 425.247945 346.6 
L 425.250398 292.465639 
L 425.604217 292.499812 
L 425.606669 346.6 
M 426.309405 346.6 
L 426.311854 292.572884 
L 426.314303 346.6 
M 427.016938 346.6 
L 427.019491 290.265329 
L 427.022043 346.6 
M 428.432328 346.6 
L 428.434765 292.835804 
L 428.437202 346.6 
M 430.555254 346.6 
L 430.557675 293.181059 
L 431.265312 293.31905 
L 431.267728 346.6 
L 431.267728 346.6 
" clip-path="url(#p7463caf6a8)" style="fill: none; stroke: #e24a33; stroke-width: 1.5; stroke-linecap: square"/>
   </g>
   <g id="patch_8">
    <path d="M 61.188889 299.608 
L 61.188889 161.251092 
" style="fill: none; stroke: #ffffff; stroke-linejoin: miter; stroke-linecap: square"/>
   </g>
   <g id="patch_9">
    <path d="M 450 299.608 
L 450 161.251092 
" style="fill: none; stroke: #ffffff; stroke-linejoin: miter; stroke-linecap: square"/>
   </g>
   <g id="patch_10">
    <path d="M 61.188889 299.608 
L 450 299.608 
" style="fill: none; stroke: #ffffff; stroke-linejoin: miter; stroke-linecap: square"/>
   </g>
   <g id="patch_11">
    <path d="M 61.188889 161.251092 
L 450 161.251092 
" style="fill: none; stroke: #ffffff; stroke-linejoin: miter; stroke-linecap: square"/>
   </g>
  </g>
 </g>
 <defs>
  <clipPath id="p0143dc84c3">
   <rect x="61.188889" y="11.472365" width="388.811111" height="138.356908"/>
  </clipPath>
  <clipPath id="p7463caf6a8">
   <rect x="61.188889" y="161.251092" width="388.811111" height="138.356908"/>
  </clipPath>
 </defs>
</svg>
